<svg width="180" height="55" viewBox="0 0 180 55" fill="none" xmlns="http://www.w3.org/2000/svg">
<rect x="0.5" y="0.5" width="179" height="53.2045" rx="6.25" fill="#100F0D"/>
<rect x="0.5" y="0.5" width="179" height="53.2045" rx="6.25" stroke="#A6A6A6"/>
<path d="M61.4383 34.4347H66.1694L64.4757 29.8948C64.2425 29.2677 64.0134 28.575 63.7874 27.8163C63.5835 28.4875 63.3612 29.1728 63.1208 29.8729L61.4383 34.4347ZM66.9778 36.5899H60.6407L59.0896 40.8346H56.3034L62.5091 24.983H65.1423L71.4902 40.8346H68.5622L66.9778 36.5899Z" fill="white"/>
<path d="M79.709 37.952C80.2591 37.2119 80.534 36.1305 80.534 34.7083C80.534 33.3885 80.3063 32.431 79.8512 31.8364C79.3958 31.2422 78.7894 30.945 78.0319 30.945C77.5075 30.945 77.0232 31.0693 76.5789 31.317C76.1346 31.565 75.712 31.8967 75.3114 32.3124V38.6357C75.581 38.7669 75.8943 38.8709 76.2512 38.9471C76.6081 39.0242 76.9615 39.0625 77.3108 39.0625C78.36 39.0625 79.159 38.6921 79.709 37.952ZM72.613 31.9187C72.613 31.0436 72.5837 30.0807 72.5256 29.0307H75.0602C75.1548 29.5193 75.2205 30.019 75.2569 30.5293C76.3057 29.3846 77.5075 28.8117 78.8624 28.8117C79.6491 28.8117 80.3774 29.0105 81.0476 29.4078C81.7175 29.8055 82.2585 30.4326 82.6699 31.2894C83.0817 32.1466 83.2874 33.2353 83.2874 34.5552C83.2874 35.9335 83.0524 37.1115 82.5825 38.0886C82.1127 39.0661 81.4554 39.8061 80.6106 40.3096C79.7657 40.8125 78.7894 41.0643 77.6826 41.0643C76.881 41.0643 76.0906 40.9293 75.3114 40.6596V45.5385L72.613 45.7683V31.9187Z" fill="white"/>
<path d="M92.0212 37.952C92.5712 37.2119 92.8462 36.1305 92.8462 34.7083C92.8462 33.3885 92.6185 32.431 92.1634 31.8364C91.7079 31.2422 91.1016 30.945 90.3441 30.945C89.8197 30.945 89.3354 31.0693 88.8911 31.317C88.4465 31.565 88.0242 31.8967 87.6236 32.3124V38.6357C87.8932 38.7669 88.2061 38.8709 88.5634 38.9471C88.92 39.0242 89.2733 39.0625 89.623 39.0625C90.6718 39.0625 91.4712 38.6921 92.0212 37.952ZM84.9248 31.9187C84.9248 31.0436 84.8955 30.0807 84.8374 29.0307H87.3724C87.467 29.5193 87.5327 30.019 87.5691 30.5293C88.6179 29.3846 89.8197 28.8117 91.1745 28.8117C91.9613 28.8117 92.6892 29.0105 93.3598 29.4078C94.0296 29.8055 94.5706 30.4326 94.9824 31.2894C95.3935 32.1466 95.5995 33.2353 95.5995 34.5552C95.5995 35.9335 95.3642 37.1115 94.8947 38.0886C94.4248 39.0661 93.7672 39.8061 92.9227 40.3096C92.0775 40.8125 91.1016 41.0643 89.9944 41.0643C89.1931 41.0643 88.4028 40.9293 87.6236 40.6596V45.5385L84.9248 45.7683V31.9187Z" fill="white"/>
<path d="M100.557 40.0851C99.3912 39.44 98.4954 38.5153 97.8693 37.312C97.2424 36.1086 96.9295 34.6864 96.9295 33.0455C96.9295 31.2662 97.29 29.7544 98.0111 28.5108C98.7322 27.2676 99.7138 26.334 100.955 25.7104C102.198 25.0869 103.59 24.775 105.135 24.775C106.045 24.775 106.914 24.8754 107.741 25.0758C108.567 25.2766 109.337 25.5517 110.052 25.9019L109.363 27.9803C107.928 27.2948 106.559 26.952 105.255 26.952C104.155 26.952 103.192 27.1873 102.365 27.6577C101.539 28.1282 100.895 28.8192 100.437 29.7308C99.9777 30.6425 99.7485 31.7437 99.7485 33.0344C99.7485 34.1653 99.925 35.1678 100.278 36.0429C100.632 36.9181 101.189 37.6112 101.95 38.1215C102.711 38.6321 103.671 38.8871 104.829 38.8871C105.353 38.8871 105.878 38.8435 106.402 38.756C106.926 38.6686 107.418 38.541 107.877 38.373V35.1678H104.217V33.0674H110.499V39.7407C109.596 40.1635 108.647 40.4884 107.653 40.7143C106.659 40.9401 105.67 41.0532 104.687 41.0532C103.099 41.0532 101.722 40.7309 100.557 40.0851Z" fill="white"/>
<path d="M118.472 38.6464C119.033 38.377 119.492 38.0412 119.849 37.6402V35.4522C119.113 35.3722 118.512 35.3319 118.046 35.3319C116.932 35.3319 116.161 35.5122 115.736 35.8736C115.309 36.2341 115.096 36.7212 115.096 37.3337C115.096 37.9177 115.251 38.3495 115.561 38.6302C115.87 38.911 116.291 39.0513 116.822 39.0513C117.361 39.0513 117.911 38.9165 118.472 38.6464ZM120.089 40.8345C119.994 40.3749 119.932 39.8538 119.903 39.2702C119.488 39.7664 118.948 40.1873 118.281 40.5339C117.615 40.8801 116.862 41.0532 116.025 41.0532C115.347 41.0532 114.73 40.9202 114.173 40.6539C113.616 40.3879 113.173 39.9867 112.846 39.4505C112.518 38.9147 112.354 38.2603 112.354 37.4868C112.354 36.3421 112.765 35.4285 113.588 34.7464C114.412 34.0646 115.784 33.7237 117.707 33.7237C118.428 33.7237 119.142 33.775 119.849 33.8769V33.6472C119.849 32.6043 119.627 31.8696 119.182 31.4426C118.738 31.0163 118.101 30.8029 117.271 30.8029C116.695 30.8029 116.08 30.8869 115.424 31.0545C114.769 31.2224 114.193 31.4229 113.698 31.6562L113.272 29.6871C113.752 29.4681 114.386 29.2677 115.173 29.0853C115.959 28.9032 116.79 28.8117 117.664 28.8117C118.684 28.8117 119.55 28.9667 120.264 29.2765C120.978 29.5867 121.535 30.1193 121.936 30.8738C122.336 31.6289 122.537 32.6446 122.537 33.9206V38.6136C122.537 39.1025 122.565 39.8431 122.624 40.8345H120.089Z" fill="white"/>
<path d="M124.607 38.0011V24.053L127.295 23.8342V37.5198C127.295 38.0231 127.38 38.3784 127.551 38.5865C127.722 38.794 127.994 38.8984 128.365 38.8984C128.533 38.8984 128.77 38.8584 129.075 38.778L129.392 40.7143C129.137 40.8165 128.826 40.8985 128.459 40.9603C128.09 41.0221 127.743 41.0532 127.415 41.0532C125.543 41.0532 124.607 40.036 124.607 38.0011Z" fill="white"/>
<path d="M131.326 38.0011V24.053L134.014 23.8342V37.5198C134.014 38.0231 134.1 38.3784 134.271 38.5865C134.442 38.794 134.713 38.8984 135.085 38.8984C135.252 38.8984 135.489 38.8584 135.795 38.778L136.112 40.7143C135.857 40.8165 135.545 40.8985 135.178 40.9603C134.81 41.0221 134.462 41.0532 134.134 41.0532C132.262 41.0532 131.326 40.036 131.326 38.0011Z" fill="white"/>
<path d="M144.534 33.5597C144.48 32.6189 144.245 31.9134 143.823 31.4426C143.401 30.9726 142.834 30.7371 142.13 30.7371C141.445 30.7371 140.874 30.9744 140.42 31.4483C139.965 31.9226 139.665 32.6262 139.528 33.5597H144.534ZM147.165 35.2772H139.452C139.575 37.7497 140.752 38.9858 142.982 38.9858C143.534 38.9858 144.101 38.9183 144.682 38.7835C145.259 38.6483 145.815 38.468 146.346 38.2418L146.938 40.0905C145.617 40.7326 144.137 41.0532 142.491 41.0532C141.235 41.0532 140.181 40.8165 139.323 40.3423C138.46 39.8683 137.814 39.1864 137.381 38.2964C136.948 37.4071 136.732 36.3349 136.732 35.0803C136.732 33.775 136.961 32.6516 137.421 31.7108C137.879 30.77 138.518 30.0518 139.337 29.5558C140.156 29.0599 141.102 28.8117 142.174 28.8117C143.289 28.8117 144.216 29.0726 144.963 29.5941C145.71 30.1153 146.263 30.8102 146.624 31.6779C146.984 32.5462 147.165 33.5049 147.165 34.5552V35.2772Z" fill="white"/>
<path d="M149.208 31.9953C149.208 31.3464 149.175 30.3583 149.117 29.0307H151.644C151.687 29.3589 151.727 29.7508 151.77 30.2068C151.81 30.6625 151.835 31.0326 151.849 31.317C152.163 30.7992 152.47 30.3635 152.773 30.0099C153.076 29.6558 153.43 29.3681 153.834 29.1453C154.239 28.923 154.697 28.8117 155.217 28.8117C155.632 28.8117 155.985 28.8556 156.285 28.9432L155.946 31.2843C155.686 31.2041 155.393 31.1638 155.072 31.1638C154.441 31.1638 153.885 31.3262 153.412 31.6508C152.939 31.9751 152.434 32.5093 151.893 33.2533V40.8346H149.208V31.9953Z" fill="white"/>
<path d="M157.801 45.6642C157.407 45.5952 157.083 45.5167 156.83 45.4294L157.321 43.4602C157.501 43.5109 157.732 43.5603 158.01 43.6077C158.284 43.6555 158.548 43.6789 158.797 43.6789C159.991 43.6789 160.886 42.9091 161.482 41.3705L161.659 40.9329L157.31 29.0307H160.204L162.391 35.6819C162.745 36.8199 162.976 37.6914 163.077 38.2964C163.283 37.4432 163.521 36.5899 163.799 35.7366L166.018 29.0307H168.736L164.402 40.9878C163.994 42.1181 163.55 43.0295 163.077 43.7226C162.604 44.4153 162.045 44.9295 161.403 45.2652C160.757 45.6003 159.981 45.7683 159.067 45.7683C158.616 45.7683 158.194 45.734 157.801 45.6642Z" fill="white"/>
<path d="M56.2919 9.8929H61.102L60.9667 11.0561H57.7016V13.3089H60.7805V14.3987H57.7016V16.8943H61.1414L61.023 18.0687H56.2919V9.8929Z" fill="white"/>
<path d="M64.4176 13.8961L61.8801 9.8929H63.4815L65.2015 12.8348L67.0118 9.8929H68.568L66.0529 13.8451L68.7766 18.0687H67.1526L65.2073 14.8504L63.2277 18.0687H61.6715L64.4176 13.8961Z" fill="white"/>
<path d="M73.35 13.543C73.6506 13.2706 73.8011 12.8854 73.8011 12.3885C73.8011 11.884 73.6477 11.5212 73.3417 11.299C73.0352 11.0767 72.5848 10.9658 71.9912 10.9658H71.2242V13.8679C71.5776 13.9243 71.8482 13.9525 72.0363 13.9525C72.6112 13.9525 73.0493 13.8162 73.35 13.543ZM69.8142 9.8929H72.0135C73.0472 9.8929 73.8386 10.1039 74.3876 10.5253C74.9365 10.947 75.2108 11.5566 75.2108 12.3545C75.2108 12.8966 75.0877 13.3703 74.8416 13.7747C74.5951 14.1794 74.2522 14.4902 73.8123 14.7063C73.3727 14.9231 72.8667 15.0311 72.2954 15.0311C71.9836 15.0311 71.6263 14.9935 71.2242 14.918V18.0687H69.8142V9.8929Z" fill="white"/>
<path d="M76.6039 9.8929H78.0136V16.8604H81.3912L81.2729 18.0687H76.6039V9.8929Z" fill="white"/>
<path d="M87.1884 16.6656C87.5832 16.4003 87.8781 16.0354 88.0737 15.5703C88.2693 15.1056 88.3671 14.5736 88.3671 13.9752C88.3671 13.388 88.2805 12.8651 88.1076 12.4055C87.9344 11.9462 87.6583 11.5805 87.2786 11.3073C86.8989 11.0344 86.4103 10.8978 85.8123 10.8978C85.241 10.8978 84.7559 11.0362 84.3575 11.313C83.9591 11.5895 83.6602 11.9606 83.461 12.4253C83.2618 12.8904 83.1622 13.4032 83.1622 13.964C83.1622 14.5548 83.256 15.0839 83.444 15.5504C83.6317 16.0173 83.9193 16.3862 84.3069 16.6573C84.6938 16.9283 85.1731 17.0638 85.7448 17.0638C86.3125 17.0638 86.7936 16.9308 87.1884 16.6656ZM83.5343 17.668C82.9366 17.3254 82.4797 16.8444 82.1639 16.2251C81.8481 15.6061 81.6904 14.8862 81.6904 14.0656C81.6904 13.2037 81.8582 12.4499 82.195 11.8041C82.5313 11.1587 83.0164 10.6601 83.6497 10.3077C84.2831 9.95613 85.0302 9.77979 85.8913 9.77979C86.7145 9.77979 87.4233 9.95035 88.0174 10.2908C88.6111 10.6319 89.0644 11.1107 89.3762 11.7279C89.6884 12.3455 89.8443 13.0606 89.8443 13.8737C89.8443 14.7507 89.6743 15.5132 89.334 16.1604C88.9936 16.8076 88.5089 17.3066 87.8792 17.6564C87.2494 18.0066 86.5099 18.1816 85.6603 18.1816C84.8407 18.1816 84.1319 18.0106 83.5343 17.668Z" fill="white"/>
<path d="M93.6284 13.7606C93.9702 13.7606 94.2729 13.6941 94.536 13.56C94.7991 13.4267 95.0041 13.2384 95.1507 12.9956C95.2975 12.7527 95.3708 12.4712 95.3708 12.1514C95.3708 11.7413 95.2409 11.441 94.9818 11.2509C94.7223 11.0608 94.3444 10.9658 93.8482 10.9658H92.8275V13.7606H93.6284ZM91.4179 9.8929H93.9723C94.9045 9.8929 95.6105 10.0794 96.0897 10.4519C96.569 10.8245 96.8087 11.3575 96.8087 12.0499C96.8087 12.4828 96.722 12.864 96.5491 13.1932C96.3763 13.5228 96.1619 13.7909 95.9064 13.9976C95.6505 14.2047 95.3878 14.359 95.1171 14.4609L97.6264 18.0687H95.9912L93.8651 14.8277H92.8275V18.0687H91.4179V9.8929Z" fill="white"/>
<path d="M98.743 9.8929H103.553L103.418 11.0561H100.153V13.3089H103.232V14.3987H100.153V16.8943H103.592L103.474 18.0687H98.743V9.8929Z" fill="white"/>
<path d="M108.786 9.8929H110.196V18.0687H108.786V9.8929Z" fill="white"/>
<path d="M113.923 11.0731H111.391L111.515 9.8929H117.871L117.741 11.0731H115.333V18.0687H113.923V11.0731Z" fill="white"/>
<path d="M127.643 16.6656C128.038 16.4003 128.333 16.0354 128.529 15.5703C128.724 15.1056 128.822 14.5736 128.822 13.9752C128.822 13.388 128.735 12.8651 128.563 12.4055C128.389 11.9462 128.113 11.5805 127.734 11.3073C127.354 11.0344 126.865 10.8978 126.267 10.8978C125.696 10.8978 125.211 11.0362 124.812 11.313C124.414 11.5895 124.115 11.9606 123.916 12.4253C123.716 12.8904 123.617 13.4032 123.617 13.964C123.617 14.5548 123.711 15.0839 123.899 15.5504C124.087 16.0173 124.374 16.3862 124.762 16.6573C125.149 16.9283 125.628 17.0638 126.2 17.0638C126.767 17.0638 127.249 16.9308 127.643 16.6656ZM123.989 17.668C123.391 17.3254 122.935 16.8444 122.619 16.2251C122.303 15.6061 122.145 14.8862 122.145 14.0656C122.145 13.2037 122.313 12.4499 122.65 11.8041C122.986 11.1587 123.471 10.6601 124.105 10.3077C124.738 9.95613 125.485 9.77979 126.346 9.77979C127.17 9.77979 127.878 9.95035 128.472 10.2908C129.066 10.6319 129.519 11.1107 129.831 11.7279C130.143 12.3455 130.299 13.0606 130.299 13.8737C130.299 14.7507 130.129 15.5132 129.789 16.1604C129.449 16.8076 128.964 17.3066 128.334 17.6564C127.704 18.0066 126.965 18.1816 126.115 18.1816C125.295 18.1816 124.587 18.0106 123.989 17.668Z" fill="white"/>
<path d="M131.872 9.8929H133.491L137.529 16.228C137.493 15.6259 137.479 15.0705 137.479 14.5624V9.8929H138.785V18.0687H137.219L133.119 11.6318C133.16 12.3625 133.181 13.0097 133.181 13.5741V18.0687H131.872V9.8929Z" fill="white"/>
<path fill-rule="evenodd" clip-rule="evenodd" d="M36.4628 9.9373H21.4695C14.4066 9.9373 11.8233 12.5239 11.8233 19.5959V34.6086C11.8233 41.6803 14.4066 44.2668 21.4695 44.2668H36.4581C43.521 44.2668 46.109 41.6803 46.109 34.6086V19.5959C46.109 12.5239 43.5257 9.9373 36.4628 9.9373Z" fill="#C91C2E"/>
<path d="M26.7812 29.8468H28.1562L27.4665 28.2409L26.7812 29.8468ZM26.4427 30.6563L26.0349 31.5908H25.1063L27.0811 27.1049H27.8834L29.8503 31.5908H28.8968L28.494 30.6563H26.4427ZM41.3851 31.5877H42.2827V27.1049H41.3851V31.5877ZM37.8133 29.6614H39.4673V28.8446H37.8133V27.9256H40.2143V27.1078H36.9161V31.5904H40.301V30.7728H37.8133V29.6614ZM34.2472 30.1912L33.2294 27.1048H32.4874L31.4697 30.1912L30.4794 27.1069H29.5114L31.0738 31.5929H31.8266L32.8458 28.6462L33.8646 31.5929H34.6243L36.1827 27.1069H35.2397L34.2472 30.1912ZM23.7363 29.6739C23.7363 30.4036 23.3743 30.7935 22.7171 30.7935C22.0563 30.7935 21.6925 30.3926 21.6925 29.6428V27.1075H20.783V29.6739C20.783 30.9365 21.4835 31.6604 22.7048 31.6604C23.938 31.6604 24.6454 30.9227 24.6454 29.6368V27.1048H23.7363V29.6739ZM18.6129 27.1049H19.522V31.5932H18.6129V29.7706H16.559V31.5932H15.6495V27.1049H16.559V28.9156H18.6129V27.1049Z" fill="white"/>
<path d="M28.966 21.3914C25.8193 21.3914 23.2591 18.8278 23.2591 15.6771H24.0653C24.0653 18.3828 26.2636 20.5841 28.966 20.5841C31.6685 20.5841 33.8667 18.3828 33.8667 15.6771H34.673C34.673 18.8278 32.1127 21.3914 28.966 21.3914Z" fill="white"/>
</svg>
