<svg width="1917" height="1536" viewBox="0 0 1917 1536" fill="none" xmlns="http://www.w3.org/2000/svg">
<path d="M1377 542.933L-0.999985 542.933" stroke="#2E3539" stroke-opacity="0.1"/>
<path d="M1377 614.8L-0.999985 614.8" stroke="#2E3539" stroke-opacity="0.1"/>
<path d="M1377 686.667L-0.999985 686.667" stroke="#2E3539" stroke-opacity="0.1"/>
<path d="M1377 758.533L-0.999985 758.533" stroke="#2E3539" stroke-opacity="0.1"/>
<path d="M1377 830.4L-0.999985 830.4" stroke="#2E3539" stroke-opacity="0.1"/>
<path d="M1377 902.267L-0.999985 902.267" stroke="#2E3539" stroke-opacity="0.1"/>
<path d="M1377 974.133L-0.999985 974.133" stroke="#2E3539" stroke-opacity="0.1"/>
<path d="M1377 1046L-0.999985 1046" stroke="#2E3539" stroke-opacity="0.1"/>
<path d="M1377 1117.87L-0.999985 1117.87" stroke="#2E3539" stroke-opacity="0.1"/>
<path d="M1377 1189.73L-0.999985 1189.73" stroke="#2E3539" stroke-opacity="0.1"/>
<path d="M1377 1261.6L-0.999985 1261.6" stroke="#2E3539" stroke-opacity="0.1"/>
<path d="M1377 1333.47L-0.999985 1333.47" stroke="#2E3539" stroke-opacity="0.1"/>
<path d="M1377 1405.33L-0.999985 1405.33" stroke="#2E3539" stroke-opacity="0.1"/>
<path d="M1377 1477.2L-0.999985 1477.2" stroke="#2E3539" stroke-opacity="0.1"/>
<path d="M51 190V1550" stroke="#2E3539" stroke-opacity="0.1"/>
<path d="M104 190V1550" stroke="#2E3539" stroke-opacity="0.1"/>
<path d="M581 190V1550" stroke="#2E3539" stroke-opacity="0.1"/>
<path d="M688 203V1563" stroke="#2E3539" stroke-opacity="0.1"/>
<path d="M157 190V1550" stroke="#2E3539" stroke-opacity="0.1"/>
<path d="M210 190V1550" stroke="#2E3539" stroke-opacity="0.1"/>
<path d="M263 190V1550" stroke="#2E3539" stroke-opacity="0.1"/>
<path d="M316 190V1550" stroke="#2E3539" stroke-opacity="0.1"/>
<path d="M369 190V1550" stroke="#2E3539" stroke-opacity="0.1"/>
<path d="M422 190V1550" stroke="#2E3539" stroke-opacity="0.1"/>
<path d="M475 190V1550" stroke="#2E3539" stroke-opacity="0.1"/>
<path d="M528 190V1550" stroke="#2E3539" stroke-opacity="0.1"/>
<path d="M634 190V1550" stroke="#2E3539" stroke-opacity="0.1"/>
<path d="M740 190V1550" stroke="#2E3539" stroke-opacity="0.1"/>
<path d="M793 190V1550" stroke="#2E3539" stroke-opacity="0.1"/>
<path d="M846 190V1550" stroke="#2E3539" stroke-opacity="0.1"/>
<path d="M899 190V1550" stroke="#2E3539" stroke-opacity="0.1"/>
<path d="M952 190V1550" stroke="#2E3539" stroke-opacity="0.1"/>
<path d="M1005 190V1550" stroke="#2E3539" stroke-opacity="0.1"/>
<path d="M1058 190V1550" stroke="#2E3539" stroke-opacity="0.1"/>
<path d="M1111 190V1550" stroke="#2E3539" stroke-opacity="0.1"/>
<path d="M1164 190V1550" stroke="#2E3539" stroke-opacity="0.1"/>
<path d="M1217 190V1550" stroke="#2E3539" stroke-opacity="0.1"/>
<path d="M1270 190V1550" stroke="#2E3539" stroke-opacity="0.1"/>
<path d="M1323 190V1550" stroke="#2E3539" stroke-opacity="0.1"/>
<path d="M1376 190V1550" stroke="#2E3539" stroke-opacity="0.1"/>
<path d="M1429 190V1550" stroke="#2E3539" stroke-opacity="0.1"/>
<rect x="-2" y="-12" width="1919" height="1544" fill="url(#paint0_linear_743_5176)"/>
<defs>
<linearGradient id="paint0_linear_743_5176" x1="595.5" y1="404.5" x2="126.954" y2="1338.21" gradientUnits="userSpaceOnUse">
<stop stop-color="white"/>
<stop offset="1" stop-color="white" stop-opacity="0"/>
</linearGradient>
</defs>
</svg>
