<svg width="208" height="41" viewBox="0 0 208 41" fill="none" xmlns="http://www.w3.org/2000/svg">
<path fill-rule="evenodd" clip-rule="evenodd" d="M60.6583 40.4278V36.6816C58.5254 39.3872 55.0399 40.792 50.618 40.792C43.9592 40.792 39.7974 36.6816 39.7974 31.1664C39.7974 25.443 44.0112 21.9049 51.5544 21.8529H60.6063V21.0204C60.6063 17.4303 58.2133 15.2971 53.5833 15.2971C50.67 15.2971 47.5487 16.2856 44.3753 18.2108L41.6702 13.0077C46.1441 10.5103 49.6296 9.15747 55.3 9.15747C63.4155 9.15747 67.9935 13.2679 68.0455 20.1879L68.0975 40.4798H60.6583V40.4278ZM60.6063 29.6575V27.5763H52.8029C48.7972 27.5763 46.9244 28.3567 46.9244 30.6981C46.9244 33.2996 49.0053 34.9646 52.4388 34.9646C56.7566 34.9646 60.1901 32.6752 60.6063 29.6575Z" fill="#37B14E"/>
<path fill-rule="evenodd" clip-rule="evenodd" d="M91.1433 9.10522V16.3895C84.5885 15.9732 80.5828 19.8235 80.5828 25.4428V40.4276H73.0396V9.41741H80.5828V15.4009C82.6637 11.3425 86.3052 9.20929 91.1433 9.10522Z" fill="#37B14E"/>
<path fill-rule="evenodd" clip-rule="evenodd" d="M108.154 9.20947C98.8944 9.20947 92.3916 15.6092 92.3916 25.0267C92.3916 34.3402 98.6863 40.7399 108.31 40.7399C113.773 40.7399 118.299 38.7628 121.368 35.3808L117.31 31.1663C115.125 33.4036 112.16 34.6524 108.987 34.6524C104.461 34.6524 101.079 31.9988 100.143 27.5762H123.033C123.761 16.3376 119.079 9.20947 108.154 9.20947ZM108.258 15.0369C112.732 15.0369 115.698 17.6384 116.166 21.8008H100.143C100.975 17.6384 103.993 15.0369 108.258 15.0369Z" fill="#37B14E"/>
<path fill-rule="evenodd" clip-rule="evenodd" d="M142.489 9.20947C133.229 9.20947 126.726 15.6092 126.726 25.0267C126.726 34.3402 133.021 40.7399 142.645 40.7399C148.107 40.7399 152.633 38.7628 155.703 35.3808L151.645 31.1663C149.46 33.4036 146.495 34.6524 143.321 34.6524C138.795 34.6524 135.414 31.9988 134.478 27.5762H157.367C158.096 16.3376 153.414 9.20947 142.489 9.20947ZM142.541 15.0369C147.015 15.0369 149.98 17.6384 150.449 21.8008H134.426C135.31 17.6384 138.327 15.0369 142.541 15.0369Z" fill="#37B14E"/>
<path fill-rule="evenodd" clip-rule="evenodd" d="M207.881 21.2285V40.5838H200.286V23.4137C200.286 18.9911 197.997 16.3376 195.084 16.3376C190.766 16.3376 188.529 20.2399 188.529 25.2868V40.5838H180.934V23.4137C180.934 18.9911 178.385 16.3376 175.315 16.3376C170.321 16.3376 169.125 20.2399 169.125 25.2868V40.5838H161.581V9.57363H169.125V14.5686C171.101 11.2906 174.067 9.36551 177.968 9.31348C182.806 9.31348 186.136 12.5394 187.072 15.5051C190.038 10.8224 193.003 9.31348 197.737 9.31348C204.032 9.31348 207.881 13.8922 207.881 21.2285Z" fill="#37B14E"/>
<path fill-rule="evenodd" clip-rule="evenodd" d="M20.8089 40.9999C9.36402 40.9999 0 31.6865 0 20.1877H7.90739C7.90739 27.2639 13.6819 33.0393 20.7569 33.0393C23.0459 33.0393 25.2308 32.4669 27.2077 31.3223C28.5082 30.5938 29.6527 29.6053 30.6412 28.4606L36.6757 33.5596C35.1151 35.4327 33.2943 36.9416 31.1614 38.1903C28.04 40.0113 24.4505 40.9999 20.8089 40.9999Z" fill="#37B14E"/>
<path fill-rule="evenodd" clip-rule="evenodd" d="M30.6413 11.915C28.8726 9.83376 26.4796 8.32487 23.8264 7.70051L25.6992 0C29.9651 1.04061 33.8667 3.43401 36.6759 6.81599L30.6413 11.915Z" fill="#37B14E"/>
<path fill-rule="evenodd" clip-rule="evenodd" d="M16.3353 7.38823C16.3353 10.6661 13.6822 13.3197 10.4048 13.3197C7.12738 13.3197 4.47424 10.6661 4.47424 7.38823C4.47424 4.11031 7.12738 1.50879 10.4048 1.50879C13.6822 1.50879 16.3353 4.11031 16.3353 7.38823Z" fill="#37B14E"/>
</svg>
