<svg width="153" height="27" viewBox="0 0 153 27" fill="none" xmlns="http://www.w3.org/2000/svg">
<mask id="mask0_760_112" style="mask-type:luminance" maskUnits="userSpaceOnUse" x="0" y="0" width="153" height="27">
<path d="M152.435 0H0V26.1642H152.435V0Z" fill="white"/>
</mask>
<g mask="url(#mask0_760_112)">
<path d="M9.50554 21.5127H12.7273V2.96692H8.04106C3.32811 2.96692 0.851807 5.39522 0.851807 8.97091C0.851807 11.8262 2.20978 13.5074 4.63282 15.2418L0.425781 21.5127H3.9139L8.60025 14.4947L6.97598 13.4005C5.00559 12.0664 4.04703 11.0257 4.04703 8.78413C4.04703 6.8095 5.43163 5.47527 8.06768 5.47527H9.50554V21.5127ZM51.8156 20.6053V18.0169C50.8304 18.6841 49.1796 19.2711 47.6352 19.2711C45.3186 19.2711 44.4399 18.1771 44.3068 15.9357H51.9487V14.2544C51.9487 9.58469 49.8984 7.8235 46.7298 7.8235C42.8689 7.8235 41.0317 10.7855 41.0317 14.8415C41.0317 19.5114 43.3216 21.7795 47.3688 21.7795C49.3926 21.7795 50.8836 21.2458 51.8156 20.6053ZM71.626 21.7795C73.0904 21.7795 74.1288 21.5127 74.901 20.9524V18.3639C74.1023 18.9243 73.1436 19.2711 71.8124 19.2711C69.549 19.2711 68.6171 17.51 68.6171 14.7348C68.6171 11.8262 69.7621 10.3319 71.8389 10.3319C73.0638 10.3319 74.262 10.7588 74.901 11.1591V8.46391C74.2353 8.09036 73.0638 7.8235 71.4928 7.8235C67.4455 7.8235 65.342 10.7321 65.342 14.8149C65.342 19.2979 67.3923 21.7795 71.626 21.7795ZM22.7923 8.09036V13.4005H18.5587V8.09036H15.3901V21.5127H18.5587V15.9089H22.7923V21.5127H25.9609V8.09036H22.7923ZM40.2595 19.0044H38.8483V8.09036H29.6088V9.23778C29.6088 12.5199 29.3958 16.7628 28.2775 19.0044H27.2922V24.5813H30.2212V21.5127H37.3306V24.5813H40.2595V19.0044ZM61.9338 21.5127H65.5284L60.4426 14.2812L64.916 8.09036H61.7207L57.2475 14.2812V8.09036H54.0789V21.5127H57.2475V14.9215L61.9338 21.5127ZM46.6766 10.3319C48.2476 10.3319 48.7269 11.6394 48.7269 13.3205V13.5873H44.3068C44.3867 11.4526 45.1589 10.3319 46.6766 10.3319ZM35.6797 19.0044H31.2064C32.0851 16.9763 32.3247 13.3205 32.3247 10.999V10.5987H35.6797V19.0044Z" fill="black"/>
<mask id="mask1_760_112" style="mask-type:luminance" maskUnits="userSpaceOnUse" x="80" y="0" width="26" height="25">
<path d="M105.554 12.4114C105.554 5.55678 100.01 0 93.1697 0C86.3299 0 80.7852 5.55678 80.7852 12.4114C80.7852 19.266 86.3299 24.8228 93.1697 24.8228C100.01 24.8228 105.554 19.266 105.554 12.4114Z" fill="white"/>
</mask>
<g mask="url(#mask1_760_112)">
<path d="M105.554 12.4114C105.554 5.55678 100.01 0 93.1697 0C86.3299 0 80.7852 5.55678 80.7852 12.4114C80.7852 19.266 86.3299 24.8228 93.1697 24.8228C100.01 24.8228 105.554 19.266 105.554 12.4114Z" fill="#FFC806"/>
<path fill-rule="evenodd" clip-rule="evenodd" d="M93.1693 24.8228C100.01 24.8228 105.554 19.266 105.554 12.4114C105.554 5.55678 100.01 0 93.1693 0C86.3299 0 80.7852 5.55678 80.7852 12.4114C80.7852 19.266 86.3299 24.8228 93.1693 24.8228ZM101.427 6.16667C101.427 6.16667 98.7332 8.66457 98.7332 12.4114C98.7332 16.1583 101.427 18.6562 101.427 18.6562L99.4009 20.6857C99.4009 20.6857 96.8638 17.987 93.1693 17.987C89.4755 17.987 86.938 20.6857 86.938 20.6857L84.9134 18.6562C84.9134 18.6562 87.6059 16.1583 87.6059 12.4114C87.6059 8.66457 84.9134 6.16667 84.9134 6.16667L86.938 4.13714C86.938 4.13714 89.4974 6.83576 93.1693 6.83576C96.8422 6.83576 99.4009 4.13714 99.4009 4.13714L101.427 6.16667Z" fill="black"/>
</g>
<path d="M112.045 2.96692V21.5127H115.267V5.47527H121.018V21.5127H124.24V2.96692H112.045Z" fill="black"/>
<path d="M129.82 8.09071H126.891V25.3823H130.058V19.9386C130.858 21.1395 132.029 21.7799 133.386 21.7799C136.476 21.7799 138.606 19.2982 138.606 14.7885C138.606 10.3055 136.529 7.82385 133.546 7.82385C132.056 7.82385 130.831 8.51769 129.979 9.82523L129.82 8.09071ZM132.589 19.2715C130.911 19.2715 130.058 17.9106 130.058 14.8152C130.058 11.6931 130.963 10.3323 132.749 10.3323C134.479 10.3323 135.331 11.6931 135.331 14.7885C135.331 17.9106 134.425 19.2715 132.589 19.2715Z" fill="black"/>
<path d="M146.101 7.82385C142.613 7.82385 140.189 10.3055 140.189 14.8152C140.189 19.2982 142.613 21.7799 146.101 21.7799C149.589 21.7799 152.012 19.2982 152.012 14.7885C152.012 10.3055 149.589 7.82385 146.101 7.82385ZM146.101 19.2715C144.344 19.2715 143.464 17.9106 143.464 14.8152C143.464 11.6931 144.344 10.3323 146.101 10.3323C147.859 10.3323 148.737 11.6931 148.737 14.7885C148.737 17.9106 147.859 19.2715 146.101 19.2715Z" fill="black"/>
</g>
</svg>
