<svg width="151" height="47" viewBox="0 0 151 47" fill="none" xmlns="http://www.w3.org/2000/svg">
<mask id="mask0_743_5359" style="mask-type:luminance" maskUnits="userSpaceOnUse" x="0" y="0" width="151" height="47">
<path d="M150.184 0H0V47H150.184V0Z" fill="white"/>
</mask>
<g mask="url(#mask0_743_5359)">
<path d="M27.7898 36.8248C37.2231 36.5355 44.7186 29.0121 44.8205 19.6676V11.6335H55.2055V20.5184C55.0017 34.9694 42.4581 46.3566 27.7729 46.6971C12.8497 46.595 0.204164 35.1227 0.000202597 20.5184V4.55266C-0.0167941 2.91862 1.037 1.8633 2.65168 1.88033H44.8036V11.6335H11.7449C10.8951 11.6335 10.3852 12.1441 10.3852 12.9952V19.4972C10.5212 28.961 18.1357 36.7227 27.7898 36.8248Z" fill="#F54C02"/>
<path d="M65.9619 8.94116H77.4347C82.9926 8.94116 87.1228 10.3539 89.8083 13.1964C92.4938 16.022 93.8366 20.022 93.8366 25.1794C93.8366 30.3368 92.4769 34.5581 89.7914 37.4516C87.0888 40.3453 82.9757 41.792 77.4517 41.792H65.979L65.9619 8.94116ZM84.5904 33.3325C86.2561 31.4943 87.1059 28.7878 87.1059 25.1965C87.1059 21.6049 86.273 18.9496 84.6243 17.2475C82.9757 15.5454 80.4772 14.6943 77.1797 14.6943H72.6417V36.0899H77.1797C80.4432 36.073 82.9077 35.1537 84.5904 33.3325Z" fill="#3A2932"/>
<path d="M99.0385 7.63078C99.7014 6.96697 100.585 6.64355 101.707 6.64355C102.829 6.64355 103.713 6.96697 104.358 7.63078C105.004 8.29461 105.327 9.14567 105.327 10.218C105.327 11.2903 105.004 12.1754 104.358 12.8052C103.713 13.435 102.829 13.7414 101.707 13.7414C100.585 13.7414 99.7014 13.435 99.0385 12.8052C98.3756 12.1754 98.0527 11.3244 98.0527 10.218C98.0527 9.11164 98.3925 8.29461 99.0385 7.63078ZM104.902 16.8222V41.7922H98.4776V16.8392L104.902 16.8222Z" fill="#3A2932"/>
<path d="M110.799 8.94116H122.272C127.829 8.94116 131.96 10.3539 134.645 13.1964C137.331 16.022 138.674 20.022 138.674 25.1794C138.674 30.3368 137.314 34.5581 134.628 37.4516C131.926 40.3453 127.813 41.792 122.289 41.792H110.816L110.799 8.94116ZM129.427 33.3325C131.093 31.4943 131.943 28.7878 131.943 25.1965C131.943 21.6049 131.11 18.9496 129.461 17.2475C127.813 15.5454 125.314 14.6943 122.017 14.6943H117.479V36.0899H122C125.28 36.073 127.762 35.1537 129.427 33.3325Z" fill="#3A2932"/>
<path d="M143.896 7.63078C144.558 6.96697 145.442 6.64355 146.564 6.64355C147.686 6.64355 148.57 6.96697 149.216 7.63078C149.861 8.29461 150.184 9.14567 150.184 10.218C150.184 11.2903 149.861 12.1754 149.216 12.8052C148.57 13.435 147.686 13.7414 146.564 13.7414C145.442 13.7414 144.558 13.435 143.896 12.8052C143.233 12.1754 142.91 11.3244 142.91 10.218C142.91 9.11164 143.233 8.29461 143.896 7.63078ZM149.742 16.8222V41.7922H143.318V16.8392L149.742 16.8222Z" fill="#3A2932"/>
</g>
</svg>
