<svg width="29" height="29" viewBox="0 0 29 29" fill="none" xmlns="http://www.w3.org/2000/svg">
<g clip-path="url(#clip0_743_7670)">
<rect width="29" height="29" rx="14.5" fill="white"/>
<path d="M-8.69995 28.9918H37.7554V0H-8.69995V28.9918Z" fill="#FEFEFE"/>
<path d="M37.7598 11.6008H17.8202V0.00164032H11.1987V11.6008H-8.677V17.3976H11.1987V28.9918H17.8202V17.3976H37.7598V11.6008Z" fill="#C32730"/>
<path d="M-2.24658 0.000549316L9.01546 8.23468V0.000549316H-2.24658Z" fill="#303463"/>
<path d="M5.47316 9.649L-8.69995 0.000694275V2.27438L1.06642 9.649H5.47316Z" fill="#C32730"/>
<path d="M23.5964 19.3408L37.7695 28.9891V26.7154L28.0032 19.3408H23.5964Z" fill="#C32730"/>
<path d="M-2.24658 28.9918L9.01546 20.8035V29L-2.24658 28.9918Z" fill="#303463"/>
<path d="M5.37858 19.3402L-8.6875 28.9842L-4.38779 28.9885L9.03394 19.7329V19.3402H5.37858Z" fill="#C32730"/>
<path d="M31.3162 0.000549316L20.0542 8.23359V0.000549316H31.3162Z" fill="#303463"/>
<path d="M37.7522 0.0109024H33.6157L20.0701 9.33143V9.6592H23.8505L37.7522 0.0109024Z" fill="#C32730"/>
<path d="M31.3162 28.9918L20.0542 20.8008V29L31.3162 28.9918Z" fill="#303463"/>
</g>
<defs>
<clipPath id="clip0_743_7670">
<rect width="29" height="29" rx="14.5" fill="white"/>
</clipPath>
</defs>
</svg>
