<svg width="124" height="37" viewBox="0 0 124 37" fill="none" xmlns="http://www.w3.org/2000/svg">
<path d="M18.6528 5.52201C18.2263 4.48469 17.6776 3.5693 16.946 2.74581C16.2148 1.92196 15.3307 1.25079 14.3251 0.762704C13.3192 0.274618 12.1914 0 11.003 0H0V20.1665H5.05962V17.2987H11.1859C12.3743 17.2987 13.4717 17.0545 14.4773 16.5664C15.4832 16.078 16.3366 15.4375 17.0374 14.6137C17.7387 13.8206 18.287 12.9052 18.6835 11.8679C19.0797 10.8306 19.2626 9.76285 19.2626 8.66437C19.2626 7.59666 19.0797 6.55934 18.6528 5.52201ZM13.2277 11.7152C12.5876 12.4779 11.8257 12.8748 10.9112 12.8748H5.05962V4.4543H10.6676C11.1248 4.4543 11.5517 4.54584 11.9782 4.72892C12.4047 4.912 12.7705 5.18662 13.1059 5.55277C13.4106 5.91856 13.6546 6.34587 13.8679 6.86435C14.0508 7.41358 14.1422 7.99321 14.1422 8.66437C14.1422 9.94592 13.8375 10.9829 13.2277 11.7152ZM0 28.7089H5.05962V23.0342H0V28.7089Z" fill="#F5B034"/>
<path d="M27.337 28.7789C26.41 28.7789 25.544 28.6255 24.7402 28.3216C23.9349 28.0162 23.24 27.5885 22.6554 27.0389C22.0704 26.4908 21.6121 25.85 21.2833 25.1173C20.9542 24.3858 20.7891 23.5801 20.7891 22.701C20.7891 21.7982 20.9916 20.9625 21.3933 20.1939C21.795 19.4252 22.3563 18.7711 23.0749 18.2348C23.7939 17.6986 24.6539 17.2772 25.6539 16.9718C26.6539 16.6664 27.751 16.5145 28.9457 16.5145C29.7987 16.5145 30.6336 16.5875 31.4507 16.7335C32.2674 16.881 32.9924 17.0878 33.6277 17.3561V16.258C33.6277 14.9891 33.2678 14.0133 32.5488 13.3295C31.8287 12.6457 30.7613 12.3044 29.3478 12.3044C28.3237 12.3044 27.3237 12.4864 26.3489 12.8529C25.3726 13.2191 24.374 13.7568 23.3503 14.4647L21.8502 11.3527C24.313 9.71685 26.9709 8.89893 29.8239 8.89893C32.5784 8.89893 34.7188 9.57676 36.2426 10.931C37.7665 12.2851 38.5285 14.2442 38.5285 16.8065V22.774C38.5285 23.2866 38.6192 23.6531 38.8024 23.8732C38.9853 24.0922 39.283 24.2145 39.698 24.2383V28.4124C38.8691 28.5821 38.1505 28.6688 37.5403 28.6688C36.6132 28.6688 35.9002 28.4617 35.4018 28.0459C34.9017 27.6319 34.5907 27.0823 34.4685 26.3985L34.3585 25.3378C33.5044 26.4597 32.4685 27.3147 31.2497 27.9002C30.0309 28.4854 28.7254 28.7789 27.337 28.7789ZM28.7254 25.1903C29.5547 25.1903 30.3419 25.0443 31.086 24.7508C31.8287 24.4588 32.4074 24.0685 32.8228 23.5801C33.3585 23.1657 33.6277 22.701 33.6277 22.1884V19.9926C33.0416 19.7725 32.4074 19.595 31.7258 19.4608C31.0427 19.327 30.3833 19.2599 29.751 19.2599C28.4814 19.2599 27.4459 19.5471 26.6421 20.1208C25.8372 20.6945 25.4351 21.4198 25.4351 22.2989C25.4351 23.1287 25.7506 23.8184 26.3863 24.3665C27.0186 24.9161 27.8002 25.1903 28.7254 25.1903Z" fill="#F5B034"/>
<path d="M43.0253 32.1475C43.4407 32.2694 43.8424 32.3602 44.2322 32.4213C44.6221 32.4825 44.9527 32.5136 45.2204 32.5136C45.5373 32.5136 45.829 32.4514 46.0986 32.3305C46.3663 32.2068 46.6106 31.9937 46.829 31.6898C47.0493 31.3829 47.2681 30.963 47.4884 30.4268C47.7072 29.889 47.9394 29.2186 48.1834 28.4125L40.6113 9.22852H45.6595L50.8531 24.1654L55.4607 9.22852H60.0697L52.0231 32.2205C51.5603 33.5624 50.7669 34.6605 49.6465 35.5155C48.5243 36.3675 47.1341 36.7967 45.4766 36.7967C45.0863 36.7967 44.6906 36.7667 44.2874 36.7041C43.8857 36.6418 43.4644 36.5406 43.0253 36.3946V32.1475Z" fill="#F5B034"/>
<path d="M79.7826 6.84916H71.4816V28.4124H66.4705V6.84916H58.168V2.41895H79.7826V6.84916Z" fill="black"/>
<path d="M83.7335 28.7789C82.8064 28.7789 81.9401 28.6255 81.1367 28.3216C80.3314 28.0162 79.6365 27.5885 79.0515 27.0389C78.4669 26.4908 78.0086 25.85 77.6794 25.1173C77.3507 24.3858 77.1855 23.5801 77.1855 22.701C77.1855 21.7982 77.3881 20.9625 77.7898 20.1939C78.1915 19.4252 78.7524 18.7711 79.4714 18.2348C80.19 17.6986 81.0504 17.2772 82.0504 16.9718C83.0504 16.6664 84.1474 16.5145 85.3422 16.5145C86.1952 16.5145 87.0301 16.5875 87.8468 16.7335C88.6639 16.881 89.3888 17.0878 90.0242 17.3561V16.258C90.0242 14.9891 89.6639 14.0133 88.9453 13.3295C88.2248 12.6457 87.1578 12.3044 85.7443 12.3044C84.7202 12.3044 83.7202 12.4864 82.7454 12.8529C81.769 13.2191 80.7705 13.7568 79.7465 14.4647L78.2466 11.3527C80.7094 9.71685 83.3674 8.89893 86.2204 8.89893C88.9749 8.89893 91.1149 9.57676 92.6391 10.931C94.163 12.2851 94.925 14.2442 94.925 16.8065V22.774C94.925 23.2866 95.0157 23.6531 95.1986 23.8732C95.3818 24.0922 95.6795 24.2145 96.0945 24.2383V28.4124C95.2656 28.5821 94.5469 28.6688 93.9368 28.6688C93.0094 28.6688 92.2967 28.4617 91.7983 28.0459C91.2981 27.6319 90.9871 27.0823 90.865 26.3985L90.755 25.3378C89.9005 26.4597 88.865 27.3147 87.6461 27.9002C86.4273 28.4854 85.1219 28.7789 83.7335 28.7789ZM85.1219 25.1903C85.9508 25.1903 86.7383 25.0443 87.4825 24.7508C88.2248 24.4588 88.8039 24.0685 89.2189 23.5801C89.7546 23.1657 90.0242 22.701 90.0242 22.1884V19.9926C89.4377 19.7725 88.8039 19.595 88.1223 19.4608C87.4392 19.327 86.7798 19.2599 86.1474 19.2599C84.8779 19.2599 83.8424 19.5471 83.0386 20.1208C82.2333 20.6945 81.8316 21.4198 81.8316 22.2989C81.8316 23.1287 82.1471 23.8184 82.7824 24.3665C83.4151 24.9161 84.1963 25.1903 85.1219 25.1903Z" fill="black"/>
<path d="M102.121 9.39844L106.254 15.4034L106.547 16.0615L106.912 15.4034L111.009 9.39844H116.055L109.217 19.0275L116.165 28.5824H111.119L106.876 22.615L106.547 21.9923L106.254 22.615L102.048 28.5824H97L103.913 19.0275L97.1103 9.39844H102.121Z" fill="black"/>
<path d="M119.1 6.55589V1.68726H124V6.55589H119.1ZM119.1 28.4123V9.22833H124V28.4123H119.1Z" fill="black"/>
<path d="M7.89408 23.0241H5.04883V20.176H7.89408V23.0241Z" fill="#F5B034"/>
<path d="M10.7402 25.8726H7.89453V23.0242H10.7402V25.8726Z" fill="#F5B034"/>
<path d="M13.5859 23.0241H10.7402V20.176H13.5859V23.0241Z" fill="#F5B034"/>
<path d="M16.4312 25.8726H13.5859V23.0242H16.4312V25.8726Z" fill="#F5B034"/>
<path d="M19.2769 23.0241H16.4316V20.176H19.2769V23.0241Z" fill="#F5B034"/>
</svg>
