<svg width="122" height="40" viewBox="0 0 122 40" fill="none" xmlns="http://www.w3.org/2000/svg">
<path d="M64.2817 21.8109C63.8671 17.9671 60.6758 15.1276 56.5402 15.1276C52.5208 15.1276 49.2121 18.4983 48.7987 21.8109H64.2817ZM68.5996 33.3667C68.7701 33.4816 68.8847 33.6628 68.9156 33.8662C68.9465 34.0696 68.8908 34.2767 68.7622 34.4371C66.126 37.766 62.3992 39.9 57.0129 39.9C48.2075 39.9 41.9444 33.6317 41.9444 24.7004C41.9444 16.0063 48.2668 9.50078 56.6575 9.50078C65.1086 9.50078 71.0768 16.0656 71.0768 24.7004C71.0768 24.9922 71.064 25.5594 71.0524 26.0255C71.0423 26.4399 70.7036 26.7706 70.2894 26.7705H48.7394C49.0356 30.97 52.7577 34.1047 57.0721 34.1047C60.2635 34.1047 62.0194 32.9424 63.5245 31.006C63.7686 30.6871 64.2175 30.6115 64.5523 30.8328C65.543 31.5069 67.5474 32.6693 68.5996 33.3667ZM88.1056 33.1481C84.9061 33.1481 83.4289 31.6697 83.4289 28.3443V16.1829H86.7689C87.1909 16.1829 87.5331 15.8405 87.5331 15.4181V10.913C87.5324 10.4909 87.1907 10.1488 86.7689 10.1482H83.4347V2.91393C83.435 2.711 83.3546 2.51629 83.2112 2.37279C83.0678 2.22929 82.8733 2.14912 82.6705 2.14912H77.5606C77.1385 2.14912 76.7964 2.49154 76.7964 2.91393V10.154H73.6097C73.1881 10.1546 72.8467 10.4969 72.8467 10.9188V15.424C72.8464 15.6267 72.9266 15.8212 73.0697 15.9647C73.2129 16.1081 73.4071 16.1888 73.6097 16.1888H76.7929V29.6379C76.7929 35.9145 80.4233 39.6757 86.453 39.6757C87.4982 39.6757 88.2369 39.5595 89.0591 39.2584C89.5827 39.0625 89.9273 38.5591 89.921 37.9997L89.9045 33.8153C89.9009 33.597 89.8041 33.3906 89.6385 33.2484C89.4729 33.1062 89.2544 33.0418 89.0382 33.0714C88.7291 33.1155 88.4177 33.1411 88.1056 33.1481ZM106.273 33.1481C103.073 33.1481 101.597 31.6697 101.597 28.3443V16.1829H104.937C105.14 16.1829 105.334 16.1023 105.477 15.9589C105.62 15.8154 105.7 15.6209 105.7 15.4181V10.913C105.7 10.4911 105.359 10.1488 104.937 10.1482H101.597V2.91393C101.597 2.49154 101.255 2.14913 100.833 2.14913H95.7229C95.5203 2.14913 95.3261 2.22974 95.183 2.3732C95.0398 2.51666 94.9596 2.7112 94.9599 2.91393V10.154H91.7778C91.356 10.1546 91.0143 10.4967 91.0136 10.9188V15.424C91.0136 15.6268 91.0941 15.8213 91.2375 15.9648C91.3808 16.1082 91.5751 16.1888 91.7778 16.1888H94.9611V29.6379C94.9611 35.9145 98.5914 39.6757 104.621 39.6757C105.666 39.6757 106.405 39.5595 107.227 39.2584C107.75 39.0617 108.094 38.5588 108.089 37.9997L108.073 33.8153C108.069 33.5969 107.972 33.3905 107.806 33.2484C107.64 33.1062 107.421 33.0418 107.205 33.0714C106.896 33.1155 106.585 33.1411 106.273 33.1481ZM18.9648 19.112V23.4567C18.9648 23.6593 19.0452 23.8535 19.1883 23.9967C19.3314 24.1399 19.5254 24.2204 19.7278 24.2204H31.5329C30.6514 29.7995 26.0746 33.7653 19.9566 33.7653C12.5147 33.7653 6.72652 27.5864 6.72652 20.0279C6.72652 12.4136 12.5693 6.2893 19.9009 6.2893C24.0097 6.2893 27.4995 7.9549 29.7874 10.9583C30.0234 11.2671 30.454 11.3483 30.7862 11.1466L35.2155 8.46516C35.3799 8.36528 35.4948 8.20089 35.5321 8.01211C35.5694 7.82333 35.5258 7.62754 35.4118 7.47254C32.16 2.98483 26.574 0 19.9566 0C8.99231 0 0 8.99285 0 20.0279C0 31.0629 8.82624 40 19.9009 40C30.8721 40 38.3523 31.6697 38.3523 20.9101V19.1922C38.3523 18.9894 38.2718 18.7948 38.1285 18.6514C37.9852 18.508 37.7908 18.4274 37.5882 18.4274H19.6488C19.2711 18.4274 18.9648 18.7339 18.9648 19.112Z" fill="#263238"/>
<path d="M117.29 31.4094C115.585 31.4094 114.54 31.6675 113.939 32.3997C113.422 33.0274 113.233 34.0049 113.233 35.4694C113.233 37.0141 113.445 38.0184 114.029 38.6402C114.642 39.2946 115.666 39.5282 117.29 39.5282C119.148 39.5282 120.216 39.2237 120.788 38.3357C121.193 37.7057 121.346 36.784 121.346 35.4694C121.346 33.9014 121.128 32.8914 120.525 32.2707C119.923 31.65 118.89 31.4094 117.29 31.4094Z" fill="#FF9D00"/>
</svg>
