<svg width="116" height="41" viewBox="0 0 116 41" fill="none" xmlns="http://www.w3.org/2000/svg">
<path d="M4.76908 21.7509C4.76908 30.0732 11.0753 36.4558 19.231 36.4558C27.0768 36.4558 31.0254 31.4008 31.0254 25.8357V23.8434H19.5899V26.9067H27.8972C27.9487 29.9193 25.1794 33.442 19.231 33.442C12.6664 33.442 8.10229 28.5917 8.10229 21.7497C8.10229 15.1631 13.0254 10.2102 19.7949 10.2102C24.205 10.2102 27.6922 11.283 30.9229 13.5306L31.1285 13.3773V10.5181C28.7182 8.83306 24.6155 7.19758 19.6924 7.19758C11.333 7.19939 4.76908 13.6327 4.76908 21.7509ZM0 21.7509C0 32.7797 8.20476 41 19.231 41C29.2821 41 35.4361 34.7213 35.4361 24.5594V19.3529H19.5899V22.3112H32.5662V25.0684C32.5662 33.0339 27.594 37.988 19.2328 37.988C10.053 37.988 3.23255 30.9933 3.23255 21.7515C3.23255 12.7651 10.4119 5.66775 19.6942 5.66775C24.1043 5.66775 28.1045 6.74056 31.1303 8.83367V5.82109C28.207 3.72799 24.3608 2.65578 19.6942 2.65578C8.56373 2.65517 0 11.0819 0 21.7509ZM41.9491 24.3548V40.1318H44.9743V24.4061C44.9743 20.8828 47.2821 18.3809 50.7184 18.3809C51.7438 18.3809 52.6667 18.6363 53.6411 19.045C54.0516 18.0748 54.4615 17.258 54.9751 16.4919C53.8982 15.7771 52.3071 15.3176 50.77 15.3176C45.5898 15.3176 41.9491 19.045 41.9491 24.3548ZM37.4875 40.1318H40.5133V24.3548C40.5133 18.1256 44.7184 13.888 50.8215 13.888C52.8729 13.888 54.9751 14.5521 55.898 15.1136C56.4626 14.4495 57.078 13.7347 57.899 13.0712C56.0017 11.743 53.4374 10.9775 50.6681 10.9775C42.6167 10.9775 37.4887 16.3899 37.4887 24.4061L37.4875 40.1318ZM84.923 22.4657V26.9079C86.7179 24.5081 88.2581 22.4144 89.6921 20.6787C93.3303 16.2365 96.5132 13.786 101.436 13.786C108.103 13.786 112.975 18.7897 112.975 25.8357C112.975 32.7284 108.205 37.9874 101.641 37.9874C96.3052 37.9874 91.6925 34.3651 90.6156 29.4097L88.4618 32.3203C90.1536 37.1706 95.1282 41 101.59 41C109.897 41 116 34.3627 116 25.8357C116.001 17.2067 109.845 10.7197 101.437 10.7197C92.7185 10.7197 88.7183 17.2067 84.923 22.4657ZM94.3078 24.7122H94.2053L91.8459 27.9288C92.2565 31.6055 96.0002 36.5071 101.641 36.5071C107.385 36.5071 111.538 31.8584 111.538 25.7844C111.538 19.7103 107.282 15.2156 101.436 15.2156C95.7437 15.2156 92.462 19.3511 90.1536 22.4144C89.0257 23.8953 87.0769 26.2951 84.923 29.3077V34.2093C86.924 31.2481 89.6412 27.7761 91.641 25.3763C95.0257 21.3422 97.0771 18.2789 101.385 18.2789C105.59 18.2789 108.462 21.4955 108.462 25.7844C108.462 30.2266 105.744 33.4945 101.641 33.4945C97.336 33.4945 94.3078 29.5631 94.3078 25.1716V24.7122ZM91.282 0V12.712C92.2049 11.9972 93.2309 11.129 94.3078 10.7197V0H91.282ZM86.77 17.3606C87.6929 16.1864 88.7183 14.9095 89.7952 13.8373V0H86.77V17.3606ZM74.4608 31.9104L74.4092 31.8596C73.1274 32.8805 71.0251 33.4933 69.0247 33.4933C64.922 33.4933 61.8453 30.4294 61.8453 25.8864C61.8453 21.5469 64.8711 18.2276 68.9222 18.2276C73.2808 18.2276 75.9488 21.3935 75.9488 25.6316V40.1318H78.974V25.4783C78.974 19.5552 74.8203 15.215 68.9743 15.215C63.1793 15.215 58.7176 19.5546 58.7176 25.8858C58.7176 32.1645 63.1277 36.6592 68.9743 36.5065C71.1791 36.4552 73.436 35.6383 74.4614 34.9235L74.4608 31.9104ZM54.1541 25.8357C54.1541 34.7201 60.4603 41 68.975 41C70.8723 41 73.0776 40.4385 74.462 39.3663V36.3538C73.5391 37.1199 71.2822 37.9874 68.975 37.9874C62.0017 37.9874 57.2824 33.0858 57.2824 25.8357C57.2824 18.943 62.3079 13.786 68.975 13.786C75.5904 13.786 80.411 18.6363 80.411 25.427V40.1318H83.4878V25.3763C83.4878 16.9006 77.4878 10.6714 68.975 10.6714C60.6156 10.6714 54.1541 17.258 54.1541 25.8357Z" fill="#00B14F"/>
</svg>
