<svg width="72" height="49" viewBox="0 0 72 49" fill="none" xmlns="http://www.w3.org/2000/svg">
<path d="M27.1828 11.3613H37.7418V34.9741C37.7418 39.3744 36.2049 43.0299 33.3222 45.5294C30.7385 47.7696 27.1468 49 23.2145 49C20.7055 49 18.1578 48.4758 15.8012 47.5433V38.2185C16.1363 38.4061 16.4382 38.5551 16.4382 38.5551C18.0083 39.3 19.6948 39.7138 21.3785 39.7138C23.0262 39.7138 24.4495 39.3386 25.5711 38.6296C26.7702 37.8847 27.4818 36.8032 27.6314 35.5342C26.0416 36.8781 24.0256 37.618 21.9406 37.6226C19.6084 37.6189 17.3728 36.6943 15.7236 35.0514C14.0745 33.4085 13.1464 31.1812 13.1428 28.8578V11.3613H23.6991V25.3486C23.6991 26.6949 25.236 27.7018 26.6594 26.6949C26.8377 26.5682 26.982 26.3998 27.0796 26.2045C27.1771 26.0091 27.2249 25.7929 27.2188 25.5748V11.3613H27.1828ZM10.5231 28.8578C10.5231 31.6911 11.4203 34.1906 13.1428 36.0942C13.2535 36.2046 13.5166 36.5025 13.5166 36.5025C13.5166 36.5025 13.2175 36.6901 13.068 36.7646C11.8611 37.3296 10.544 37.6225 9.21046 37.6226C4.75477 37.6226 0 34.3396 0 27.1032V0.844626H10.5231V28.8578ZM68.4803 21.8807V23.6353C68.4803 25.5389 70.0145 27.139 71.9972 27.139V37.6612H71.5514C67.9182 37.5481 64.512 36.1301 62.0031 33.6333C59.3806 31.0207 57.96 27.4756 57.96 23.6739V14.0484C57.96 11.5103 55.2268 9.57081 52.4935 11.0633C52.015 11.3402 51.6178 11.7375 51.3417 12.2153C51.0657 12.6932 50.9205 13.2349 50.9206 13.7863V16.6582H55.3015V27.1032H50.9206C50.9234 29.8194 49.8623 32.4294 47.9631 34.3782C46.0942 36.3417 43.5247 37.4933 40.8102 37.584H40.4003V13.7477C40.4003 8.56383 44.3686 2.74546 49.2342 0.954979C57.996 -2.2894 66.6831 3.1179 68.256 11.3613H72V21.8807H68.4803Z" fill="black"/>
</svg>
