<svg width="124" height="38" viewBox="0 0 124 38" fill="none" xmlns="http://www.w3.org/2000/svg">
<path d="M18.6528 6.1237C18.2263 5.08637 17.6776 4.17098 16.946 3.3475C16.2148 2.52364 15.3307 1.85248 14.3251 1.36439C13.3192 0.876302 12.1914 0.601685 11.003 0.601685H0V20.7682H5.05962V17.9004H11.1859C12.3743 17.9004 13.4717 17.6562 14.4773 17.1681C15.4832 16.6796 16.3366 16.0392 17.0374 15.2154C17.7387 14.4223 18.287 13.5069 18.6835 12.4696C19.0797 11.4322 19.2626 10.3645 19.2626 9.26606C19.2626 8.19834 19.0797 7.16102 18.6528 6.1237ZM13.2277 12.3169C12.5876 13.0796 11.8257 13.4765 10.9112 13.4765H5.05962V5.05598H10.6676C11.1248 5.05598 11.5517 5.14752 11.9782 5.3306C12.4047 5.51368 12.7705 5.7883 13.1059 6.15446C13.4106 6.52025 13.6546 6.94755 13.8679 7.46603C14.0508 8.01527 14.1422 8.59489 14.1422 9.26606C14.1422 10.5476 13.8375 11.5846 13.2277 12.3169ZM0 29.3106H5.05962V23.6359H0V29.3106Z" fill="#F5B034"/>
<path d="M27.3374 29.3806C26.4103 29.3806 25.5443 29.2272 24.7405 28.9233C23.9353 28.6179 23.2403 28.1903 22.6557 27.6406C22.0708 27.0925 21.6124 26.4517 21.2837 25.7191C20.9545 24.9875 20.7894 24.1818 20.7894 23.3027C20.7894 22.3999 20.9919 21.5642 21.3936 20.7956C21.7953 20.0269 22.3566 19.3728 23.0752 18.8366C23.7942 18.3003 24.6543 17.8789 25.6543 17.5735C26.6543 17.2682 27.7513 17.1162 28.946 17.1162C29.7991 17.1162 30.6339 17.1892 31.451 17.3352C32.2678 17.4827 32.9927 17.6895 33.628 17.9579V16.8598C33.628 15.5908 33.2681 14.615 32.5492 13.9312C31.829 13.2475 30.7617 12.9061 29.3481 12.9061C28.324 12.9061 27.324 13.0881 26.3492 13.4546C25.3729 13.8208 24.3744 14.3585 23.3507 15.0664L21.8505 11.9544C24.3133 10.3186 26.9712 9.50065 29.8242 9.50065C32.5788 9.50065 34.7191 10.1785 36.243 11.5327C37.7669 12.8869 38.5288 14.8459 38.5288 17.4082V23.3757C38.5288 23.8883 38.6195 24.2548 38.8028 24.4749C38.9857 24.694 39.2833 24.8163 39.6984 24.84V29.0141C38.8694 29.1838 38.1508 29.2706 37.5407 29.2706C36.6136 29.2706 35.9005 29.0634 35.4022 28.6476C34.902 28.2336 34.591 27.684 34.4688 27.0002L34.3589 25.9396C33.5047 27.0614 32.4688 27.9164 31.25 28.5019C30.0312 29.0871 28.7257 29.3806 27.3374 29.3806ZM28.7257 25.7921C29.5551 25.7921 30.3422 25.6461 31.0864 25.3525C31.829 25.0605 32.4077 24.6702 32.8231 24.1818C33.3589 23.7675 33.628 23.3027 33.628 22.7902V20.5943C33.0419 20.3742 32.4077 20.1967 31.7261 20.0625C31.043 19.9287 30.3837 19.8617 29.7513 19.8617C28.4818 19.8617 27.4462 20.1489 26.6424 20.7226C25.8375 21.2963 25.4355 22.0215 25.4355 22.9006C25.4355 23.7304 25.7509 24.4201 26.3866 24.9682C27.019 25.5178 27.8005 25.7921 28.7257 25.7921Z" fill="#F5B034"/>
<path d="M43.026 32.7491C43.4414 32.871 43.8432 32.9618 44.233 33.023C44.6229 33.0841 44.9535 33.1152 45.2212 33.1152C45.5381 33.1152 45.8298 33.053 46.0994 32.9322C46.367 32.8084 46.6114 32.5953 46.8298 32.2914C47.0501 31.9845 47.2689 31.5646 47.4892 31.0284C47.708 30.4906 47.9402 29.8202 48.1842 29.0141L40.6121 9.83012H45.6603L50.8539 24.767L55.4615 9.83012H60.0705L52.0239 32.8221C51.5611 34.164 50.7676 35.2622 49.6473 36.1171C48.5251 36.9692 47.1349 37.3983 45.4774 37.3983C45.0871 37.3983 44.6914 37.3683 44.2882 37.3057C43.8865 37.2434 43.4651 37.1422 43.026 36.9962V32.7491Z" fill="#F5B034"/>
<path d="M79.7833 7.45083H71.4823V29.0141H66.4711V7.45083H58.1686V3.02062H79.7833V7.45083Z" fill="white"/>
<path d="M83.7344 29.3806C82.8074 29.3806 81.941 29.2272 81.1376 28.9233C80.3323 28.6179 79.6374 28.1903 79.0524 27.6406C78.4678 27.0925 78.0095 26.4517 77.6804 25.7191C77.3516 24.9875 77.1865 24.1818 77.1865 23.3027C77.1865 22.3999 77.389 21.5642 77.7907 20.7956C78.1924 20.0269 78.7533 19.3728 79.4723 18.8366C80.1909 18.3003 81.0513 17.8789 82.0513 17.5735C83.0513 17.2682 84.1483 17.1162 85.3431 17.1162C86.1961 17.1162 87.031 17.1892 87.8477 17.3352C88.6648 17.4827 89.3898 17.6895 90.0251 17.9579V16.8598C90.0251 15.5908 89.6648 14.615 88.9462 13.9312C88.2257 13.2475 87.1587 12.9061 85.7452 12.9061C84.7211 12.9061 83.7211 13.0881 82.7463 13.4546C81.77 13.8208 80.7714 14.3585 79.7474 15.0664L78.2476 11.9544C80.7104 10.3186 83.3683 9.50065 86.2213 9.50065C88.9758 9.50065 91.1158 10.1785 92.64 11.5327C94.1639 12.8869 94.9259 14.8459 94.9259 17.4082V23.3757C94.9259 23.8883 95.0166 24.2548 95.1995 24.4749C95.3827 24.694 95.6804 24.8163 96.0954 24.84V29.0141C95.2665 29.1838 94.5479 29.2706 93.9377 29.2706C93.0103 29.2706 92.2976 29.0634 91.7992 28.6476C91.2991 28.2336 90.9881 27.684 90.8659 27.0002L90.7559 25.9396C89.9014 27.0614 88.8659 27.9164 87.6471 28.5019C86.4283 29.0871 85.1228 29.3806 83.7344 29.3806ZM85.1228 25.7921C85.9518 25.7921 86.7392 25.6461 87.4834 25.3525C88.2257 25.0605 88.8048 24.6702 89.2198 24.1818C89.7555 23.7675 90.0251 23.3027 90.0251 22.7902V20.5943C89.4386 20.3742 88.8048 20.1967 88.1232 20.0625C87.4401 19.9287 86.7807 19.8617 86.1484 19.8617C84.8788 19.8617 83.8433 20.1489 83.0395 20.7226C82.2342 21.2963 81.8325 22.0215 81.8325 22.9006C81.8325 23.7304 82.148 24.4201 82.7833 24.9682C83.416 25.5178 84.1972 25.7921 85.1228 25.7921Z" fill="white"/>
<path d="M102.121 10L106.254 16.0049L106.547 16.6631L106.912 16.0049L111.009 10H116.055L109.217 19.6291L116.165 29.184H111.119L106.876 23.2165L106.547 22.5939L106.254 23.2165L102.048 29.184H97L103.913 19.6291L97.1103 10H102.121Z" fill="white"/>
<path d="M119.099 7.15769V2.28905H124V7.15769H119.099ZM119.099 29.0141V9.83012H124V29.0141H119.099Z" fill="white"/>
<path d="M7.89487 23.6259H5.04962V20.7778H7.89487V23.6259Z" fill="#F5B034"/>
<path d="M10.7405 26.4744H7.89488V23.6259H10.7405V26.4744Z" fill="#F5B034"/>
<path d="M13.5861 23.6259H10.7405V20.7778H13.5861V23.6259Z" fill="#F5B034"/>
<path d="M16.4314 26.4744H13.5861V23.6259H16.4314V26.4744Z" fill="#F5B034"/>
<path d="M19.2766 23.6259H16.4314V20.7778H19.2766V23.6259Z" fill="#F5B034"/>
</svg>
