<svg width="183" height="66" viewBox="0 0 183 66" fill="none" xmlns="http://www.w3.org/2000/svg">
<g clip-path="url(#clip0_743_10188)">
<mask id="mask0_743_10188" style="mask-type:luminance" maskUnits="userSpaceOnUse" x="0" y="0" width="183" height="66">
<path d="M182.757 0H0.945312V66H182.757V0Z" fill="white"/>
</mask>
<g mask="url(#mask0_743_10188)">
<path d="M176.204 0.824463H7.49652C4.33039 0.824463 1.76373 3.41002 1.76373 6.59946V59.3995C1.76373 62.5889 4.33039 65.1745 7.49652 65.1745H176.204C179.37 65.1745 181.937 62.5889 181.937 59.3995V6.59946C181.937 3.41002 179.37 0.824463 176.204 0.824463Z" fill="#1A1C20" stroke="#393E45"/>
<path d="M75.9586 45.1512C78.9246 44.381 80.8793 42.0764 80.8793 39.0637C80.8793 35.3367 77.9379 32.7153 73.8126 32.7153H66.4623V52.7732H69.8539V45.3997H72.2587L77.5186 52.7732H81.5022L75.9586 45.1451V45.1512ZM73.8126 35.846C75.9339 35.846 77.4015 37.1566 77.4015 39.0637C77.4015 40.9708 75.9339 42.2814 73.8126 42.2814H69.8539V35.8523H73.8126V35.846Z" fill="white"/>
<path d="M89.1391 53.0586C90.9212 53.0586 92.5616 52.1206 93.4926 50.5553L94.1401 52.7729H96.5696V37.9763H93.32V46.5425C93.32 48.6482 91.9326 50.1266 90.0395 50.1266C88.1464 50.1266 86.8761 48.6482 86.8761 46.5425V37.9763H83.6265V46.9089C83.6265 50.4683 86.0005 53.0586 89.1391 53.0586Z" fill="white"/>
<path d="M106.945 53.0567C110.707 53.0567 113.815 50.895 113.815 47.3107C113.815 43.2979 110.565 42.1302 107.765 41.1612C105.589 40.422 103.696 39.7386 103.696 37.9434C103.696 36.378 105.138 35.5519 106.834 35.5519C108.616 35.5519 109.887 36.4899 110.596 38.0863L113.821 37.5459C112.803 34.4152 110.232 32.4211 106.723 32.4211C103.215 32.4211 100.224 34.5269 100.224 38.1112C100.224 42.155 103.474 43.2607 106.273 44.1987C108.419 44.9069 110.343 45.5901 110.343 47.4163C110.343 49.0129 108.9 49.9197 106.976 49.9197C104.769 49.9197 103.584 48.87 102.536 46.9629L99.2557 47.5345C100.218 50.9198 103.27 53.0567 106.945 53.0567Z" fill="white"/>
<path d="M122.657 49.9292C121.553 49.9292 121.016 49.3888 121.016 48.2769V40.8227H125.401V37.9778H121.016V33.7102H118.587L117.767 37.9778H115.362V40.8227H117.767V48.2769C117.767 51.1778 119.432 52.7743 122.657 52.7743H125.401L125.684 49.9292H122.657Z" fill="white"/>
<path d="M134.97 53.0596C139.576 53.0596 142.826 49.8729 142.826 45.3755C142.826 40.8783 139.576 37.6917 134.97 37.6917C130.364 37.6917 127.114 40.8783 127.114 45.3755C127.114 49.8729 130.364 53.0596 134.97 53.0596ZM134.97 50.0718C132.312 50.0718 130.506 48.1647 130.506 45.3755C130.506 42.5865 132.312 40.6795 134.97 40.6795C137.628 40.6795 139.435 42.5865 139.435 45.3755C139.435 48.1647 137.628 50.0718 134.97 50.0718Z" fill="white"/>
<path d="M148.907 52.7729V44.0391C148.907 42.1632 149.813 41.1072 151.793 41.1072H153.661L153.377 37.9763H152.755C151.028 37.9763 149.702 38.4609 148.709 40.1132L148.087 37.9763H145.657V52.7729H148.907Z" fill="white"/>
<path d="M169.653 45.2065C169.653 40.9391 166.49 37.6965 162.019 37.6965C157.549 37.6965 154.385 40.9142 154.385 45.3806C154.385 49.8468 157.549 53.0645 162.019 53.0645C165.072 53.0645 167.958 51.611 169.055 48.7969L166.002 48.2814C165.293 49.3374 163.937 50.0766 162.216 50.0766C159.731 50.0766 158.091 48.5423 157.777 46.2625H169.591C169.622 45.952 169.647 45.6103 169.647 45.2065M162.013 40.5415C164.048 40.5415 165.578 41.8522 166.114 43.6971H157.974C158.51 41.79 160.04 40.5415 162.019 40.5415" fill="white"/>
<path d="M16.8137 50.0177C19.5788 52.7995 24.0235 52.7995 32.9193 52.7995H34.4888C43.3846 52.7995 47.8293 52.7995 50.5943 50.0177C53.3593 47.236 53.3593 42.7543 53.3593 33.7908V32.2081C53.3593 23.2447 53.3593 18.7629 50.5943 15.9812C47.8293 13.1995 43.3784 13.1995 34.4888 13.1995H32.9193C24.0235 13.1995 19.5726 13.1995 16.8137 15.9812C14.0488 18.7692 14.0488 23.2509 14.0488 32.2081V33.7908C14.0488 42.7543 14.0488 47.236 16.8137 50.0177Z" fill="#0077FF"/>
<path fill-rule="evenodd" clip-rule="evenodd" d="M44.3967 39.5227L41.7421 38.8551C41.4234 38.7623 41.1965 38.4718 41.1842 38.138L40.8532 28.2904C40.7551 26.9861 39.7987 25.9476 38.7932 25.6447C38.738 25.6262 38.6767 25.6447 38.6461 25.7003C38.6092 25.7498 38.6277 25.8178 38.6706 25.8549C38.9158 26.0464 39.6025 26.6771 39.6025 27.7651V40.6415C39.6025 41.884 38.4315 42.7989 37.2299 42.496L34.5322 41.816C34.2318 41.7109 34.0235 41.4327 34.0173 41.1052L33.6862 31.2576C33.5881 29.9533 32.6317 28.9148 31.6264 28.6119C31.5712 28.5934 31.5099 28.6119 31.4791 28.6675C31.4424 28.717 31.4608 28.785 31.5037 28.8221C31.7489 29.0136 32.4355 29.6443 32.4355 30.7323V41.4637V43.6087C32.4355 44.8512 31.2708 45.7661 30.0692 45.4632L22.4547 43.5468C21.394 43.281 20.6522 42.3229 20.6522 41.2288V28.3337C20.6522 27.0912 21.8171 26.1763 23.0187 26.4792L27.8191 27.6847V25.3604C27.8191 24.1178 28.9839 23.2028 30.1856 23.5058L34.9859 24.7113V22.3869C34.9859 21.1445 36.1508 20.2295 37.3524 20.5325L44.9669 22.4488C46.0275 22.7146 46.7693 23.6728 46.7693 24.7669V37.662C46.7693 38.9044 45.6045 39.8193 44.4028 39.5164" fill="white"/>
<path d="M71.0966 23.242C70.1658 23.242 69.3289 23.0242 68.5861 22.5884C67.8435 22.1432 67.2606 21.5276 66.8373 20.7416C66.4237 19.9553 66.2169 19.0698 66.2169 18.0847C66.2169 17.0997 66.4237 16.2188 66.8373 15.4421C67.2606 14.656 67.8387 14.0451 68.5721 13.6094C69.3149 13.1642 70.1517 12.9417 71.0825 12.9417C72.0885 12.9417 72.9819 13.1974 73.7622 13.7089C74.552 14.2108 75.1161 14.8928 75.4547 15.7547L74.0161 15.982C73.7529 15.4516 73.3627 15.0396 72.8454 14.746C72.3378 14.4429 71.7642 14.2914 71.1248 14.2914C70.4667 14.2914 69.879 14.4524 69.3619 14.7744C68.8541 15.0964 68.4546 15.5463 68.1631 16.1241C67.881 16.6925 67.74 17.3459 67.74 18.0847C67.74 18.833 67.881 19.496 68.1631 20.0738C68.4546 20.6421 68.8589 21.0872 69.376 21.4093C69.8932 21.7312 70.4855 21.8923 71.1531 21.8923C71.8112 21.8923 72.3942 21.7408 72.9019 21.4377C73.419 21.1252 73.814 20.6894 74.0867 20.1306L75.5251 20.3579C75.1679 21.2387 74.5897 21.9396 73.7904 22.4605C72.9912 22.9816 72.0933 23.242 71.0966 23.242Z" fill="white"/>
<path d="M83.0357 23.0984H81.2163L78.5225 20.0581H78.0853V23.0984H76.7032V15.7532H78.0853V18.7226H78.5084L81.0893 15.7532H82.7536L79.6225 19.305L83.0357 23.0984Z" fill="white"/>
<path d="M86.4632 15.6123C87.3658 15.6123 88.0756 15.9107 88.5929 16.5073C89.1193 17.0946 89.3826 17.9186 89.3826 18.9795V23.0996H88.3954L88.0711 21.9489C87.836 22.3181 87.521 22.626 87.1261 22.8724C86.7312 23.1186 86.2564 23.2416 85.7016 23.2416C85.2127 23.2416 84.7755 23.1423 84.39 22.9433C84.0045 22.7445 83.7037 22.4698 83.4873 22.1193C83.2711 21.7594 83.163 21.3568 83.163 20.9117C83.163 20.2202 83.4357 19.6661 83.981 19.2495C84.5262 18.8327 85.316 18.6243 86.3504 18.6243H88.0005C87.9628 18.0464 87.8031 17.6013 87.521 17.2888C87.2388 16.9667 86.8627 16.8057 86.3927 16.8057C86.0354 16.8057 85.7204 16.891 85.4477 17.0614C85.175 17.232 84.9681 17.4546 84.8271 17.7292L83.5438 17.5161C83.7318 16.9289 84.0938 16.4647 84.6297 16.1238C85.1657 15.7828 85.7768 15.6123 86.4632 15.6123ZM85.9977 22.0626C86.5902 22.0626 87.0696 21.8683 87.4364 21.4799C87.8124 21.0821 88.0005 20.5376 88.0005 19.8461V19.7608H86.3927C85.1704 19.7608 84.5591 20.1302 84.5591 20.8691C84.5591 21.229 84.6908 21.5179 84.9541 21.7357C85.2174 21.9535 85.5653 22.0626 85.9977 22.0626Z" fill="white"/>
<path d="M94.94 20.4273C94.7145 20.5316 94.4465 20.6121 94.1361 20.6689C93.8259 20.7258 93.5203 20.7542 93.2195 20.7542C92.345 20.7542 91.6728 20.5079 91.2026 20.0153C90.7325 19.5228 90.4974 18.8267 90.4974 17.9269V15.7532H91.8795V17.9269C91.8795 18.9783 92.3827 19.504 93.3887 19.504C93.9998 19.504 94.5169 19.3949 94.94 19.1771V15.7532H96.3223V23.0984H94.94V20.4273Z" fill="white"/>
<path d="M100.959 15.6123C101.862 15.6123 102.572 15.9107 103.089 16.5073C103.615 17.0946 103.879 17.9186 103.879 18.9795V23.0996H102.891L102.567 21.9489C102.332 22.3181 102.017 22.626 101.622 22.8724C101.227 23.1186 100.752 23.2416 100.198 23.2416C99.7088 23.2416 99.2714 23.1423 98.886 22.9433C98.5005 22.7445 98.1996 22.4698 97.9834 22.1193C97.7672 21.7594 97.6591 21.3568 97.6591 20.9117C97.6591 20.2202 97.9316 19.6661 98.477 19.2495C99.0223 18.8327 99.8121 18.6243 100.846 18.6243H102.497C102.459 18.0464 102.299 17.6013 102.017 17.2888C101.735 16.9667 101.359 16.8057 100.889 16.8057C100.531 16.8057 100.216 16.891 99.9438 17.0614C99.6711 17.232 99.4642 17.4546 99.3232 17.7292L98.0397 17.5161C98.2279 16.9289 98.5899 16.4647 99.1258 16.1238C99.6618 15.7828 100.273 15.6123 100.959 15.6123ZM100.494 22.0626C101.086 22.0626 101.566 21.8683 101.932 21.4799C102.309 21.0821 102.497 20.5376 102.497 19.8461V19.7608H100.889C99.6663 19.7608 99.0552 20.1302 99.0552 20.8691C99.0552 21.229 99.1869 21.5179 99.4501 21.7357C99.7134 21.9535 100.061 22.0626 100.494 22.0626Z" fill="white"/>
<path d="M107.603 23.0995H105.558V15.7543H106.898V21.5368H107.109L110.057 15.7543H112.102V23.0995H110.762V17.3313H110.55L107.603 23.0995ZM108.844 14.8024C108.233 14.8024 107.72 14.6414 107.307 14.3194C106.902 13.9879 106.663 13.4953 106.587 12.8418H107.716C107.763 13.1449 107.88 13.3769 108.068 13.538C108.266 13.6895 108.524 13.7653 108.844 13.7653C109.164 13.7653 109.418 13.6895 109.606 13.538C109.803 13.3769 109.921 13.1449 109.958 12.8418H111.101C111.016 13.4953 110.767 13.9879 110.353 14.3194C109.949 14.6414 109.446 14.8024 108.844 14.8024Z" fill="white"/>
<path d="M117.048 23.0984H115.666V17.0318H113.141V15.7532H119.572V17.0318H117.048V23.0984Z" fill="white"/>
<path d="M127.409 19.3773C127.409 19.5668 127.404 19.7134 127.395 19.8177H121.373C121.448 20.4713 121.702 20.9922 122.134 21.3804C122.567 21.7689 123.117 21.9631 123.784 21.9631C124.245 21.9631 124.654 21.873 125.011 21.6931C125.378 21.5037 125.656 21.2573 125.844 20.9542L127.141 21.1674C126.859 21.8304 126.403 22.3419 125.773 22.7018C125.153 23.0618 124.461 23.2416 123.7 23.2416C122.976 23.2416 122.327 23.0806 121.753 22.7587C121.18 22.4272 120.733 21.9725 120.414 21.3948C120.094 20.817 119.934 20.1634 119.934 19.4341C119.934 18.6954 120.094 18.037 120.414 17.4592C120.733 16.8816 121.175 16.4316 121.739 16.1096C122.303 15.7781 122.948 15.6123 123.671 15.6123C124.386 15.6123 125.026 15.7781 125.59 16.1096C126.163 16.4316 126.61 16.8816 126.93 17.4592C127.249 18.0276 127.409 18.6668 127.409 19.3773ZM123.671 16.8484C123.117 16.8484 122.637 17.014 122.233 17.3455C121.838 17.6772 121.575 18.1223 121.443 18.681H125.9C125.778 18.1318 125.514 17.6914 125.11 17.3599C124.715 17.0188 124.236 16.8484 123.671 16.8484Z" fill="white"/>
<path d="M133.621 23.0984H131.576V15.7532H132.916V21.5356H133.127L136.075 15.7532H138.12V23.0984H136.78V17.3301H136.569L133.621 23.0984Z" fill="white"/>
<path d="M143.855 19.3488C144.24 19.4625 144.56 19.6709 144.814 19.974C145.068 20.2677 145.195 20.6323 145.195 21.0679C145.195 21.4752 145.077 21.8446 144.842 22.1761C144.607 22.4982 144.269 22.7587 143.827 22.9575C143.394 23.1469 142.891 23.2416 142.318 23.2416C141.547 23.2416 140.884 23.0618 140.329 22.7018C139.774 22.3325 139.408 21.84 139.229 21.2242L140.512 21.0112C140.823 21.6931 141.42 22.034 142.304 22.034C142.792 22.034 143.164 21.9441 143.418 21.7641C143.681 21.5746 143.813 21.3143 143.813 20.9826C143.813 20.6891 143.69 20.4523 143.446 20.2723C143.211 20.0925 142.83 20.0024 142.304 20.0024H141.345V18.7805H142.304C142.755 18.7805 143.098 18.6954 143.333 18.5248C143.578 18.3543 143.7 18.127 143.7 17.8428C143.7 17.5397 143.568 17.2936 143.305 17.1041C143.051 16.9147 142.736 16.82 142.36 16.82C141.993 16.82 141.664 16.9099 141.373 17.0899C141.081 17.2698 140.86 17.5161 140.71 17.8287L139.426 17.6013C139.643 16.9667 140.014 16.479 140.541 16.138C141.077 15.7875 141.697 15.6123 142.402 15.6123C142.91 15.6123 143.366 15.7023 143.77 15.8822C144.184 16.0622 144.504 16.3132 144.729 16.6352C144.964 16.9573 145.082 17.3172 145.082 17.715C145.082 18.1224 144.969 18.468 144.743 18.7522C144.518 19.0363 144.222 19.2353 143.855 19.3488Z" fill="white"/>
</g>
</g>
<defs>
<clipPath id="clip0_743_10188">
<rect width="181.811" height="66" fill="white" transform="translate(0.945312)"/>
</clipPath>
</defs>
</svg>
