<svg width="116" height="40" viewBox="0 0 116 40" fill="none" xmlns="http://www.w3.org/2000/svg">
<path d="M15.5435 34.7209C20.9861 34.7209 25.193 30.5061 25.193 24.271V0.00200421H31.085V39.3266H25.2491V35.6749C22.6131 38.4287 18.9659 40 14.8694 40C6.45372 40 0 33.8771 0 24.6117V0.00801683H5.88999V24.271C5.88999 30.6183 10.0447 34.7209 15.5435 34.7209ZM35.4623 0.00400842H41.1297V14.3261C42.45 12.9715 44.0292 11.8956 45.7736 11.1623C47.5181 10.429 49.3921 10.0532 51.2847 10.0571C53.2611 10.0438 55.2205 10.4226 57.0493 11.1714C58.8781 11.9202 60.5399 13.0242 61.9385 14.4194C63.3371 15.8146 64.4446 17.4732 65.1968 19.2992C65.949 21.1251 66.331 23.0821 66.3206 25.0566C66.3206 33.314 59.7004 39.998 51.2847 39.998C49.3828 40.0029 47.4991 39.6278 45.7444 38.8946C43.9898 38.1615 42.3996 37.0852 41.0675 35.729V39.3226H35.4563L35.4643 0L35.4623 0.00400842ZM50.8915 35.0015C56.2799 35.0015 60.7115 30.5622 60.7115 25.0586C60.7115 19.4969 56.2779 15.1137 50.8915 15.1137C45.4488 15.1137 41.0173 19.4969 41.0173 25.0586C41.0173 30.5622 45.3927 35.0015 50.8915 35.0015ZM83.2684 10.1152C91.5136 10.1152 97.5761 16.4626 97.5761 25.0025V26.8564H74.293C75.0794 31.5182 78.9512 35.0015 83.7739 35.0015C87.086 35.0015 89.8906 33.6527 92.0211 30.7887L96.1176 33.821C93.2549 37.641 88.9919 39.9439 83.7739 39.9439C75.1877 39.9439 68.5675 33.5404 68.5675 25.0025C68.5675 16.9115 74.9068 10.1152 83.2684 10.1152ZM74.4013 22.361H91.8546C90.8997 17.9798 87.3649 15.0576 83.156 15.0576C78.9492 15.0576 75.4104 17.9798 74.4013 22.361ZM112.781 15.733C109.077 15.733 106.385 18.5991 106.385 23.0364V39.3266H100.716V10.6784H106.329V14.2199C107.733 11.917 110.032 10.456 113.176 10.456H115.138V15.737L112.779 15.735L112.781 15.733Z" fill="black"/>
</svg>
