<svg width="195" height="40" viewBox="0 0 195 40" fill="none" xmlns="http://www.w3.org/2000/svg">
<mask id="mask0_743_5351" style="mask-type:luminance" maskUnits="userSpaceOnUse" x="0" y="0" width="195" height="40">
<path d="M0 0H194.676V40H0V0Z" fill="white"/>
</mask>
<g mask="url(#mask0_743_5351)">
<path d="M102.298 0.00145829H124.305V5.31846H108.242V12.9235H123.878V18.0816H108.242V25.7931H124.305V31.1116H102.298V0.00145829ZM184.11 31.6964C190.858 31.6964 194.66 28.5056 194.66 24.0913C194.66 20.9545 192.409 18.6139 187.698 17.6033L182.718 16.5927C179.826 16.0618 178.916 15.5295 178.916 14.4664C178.916 13.084 180.308 12.2323 182.879 12.2323C185.663 12.2323 187.699 12.976 188.288 15.5281H194.124C193.804 10.7434 190.323 7.55113 183.254 7.55113C177.15 7.55113 172.865 10.0521 172.865 14.8908C172.865 18.242 175.222 20.4222 180.308 21.4853L185.878 22.7613C188.072 23.1871 188.662 23.7719 188.662 24.6761C188.662 26.1125 187.002 27.0167 184.325 27.0167C180.952 27.0167 179.024 26.2729 178.274 23.7194H172.383C173.24 28.5056 176.827 31.6964 184.11 31.6964ZM170.805 25.8996H166.414C165.075 25.8996 164.217 25.3148 164.217 24.0913V13.3494H170.805V8.13737H164.217V1.59685H158.327V8.13737H153.882V13.3494H158.327V25.5802C158.327 28.6646 160.522 31.1101 164.486 31.1101H170.805V25.8996ZM151.396 8.13737V31.1116H145.56V29.0379C143.487 30.769 140.869 31.7108 138.169 31.6964C131.261 31.6964 125.854 26.3254 125.854 19.6245C125.854 12.9235 131.263 7.55259 138.169 7.55259C140.869 7.5386 143.488 8.4809 145.56 10.2125V8.13883L151.396 8.13737ZM145.666 19.6245C145.675 18.7007 145.499 17.7846 145.149 16.9294C144.8 16.0743 144.284 15.2973 143.631 14.6438C142.978 13.9903 142.201 13.4734 141.346 13.1232C140.492 12.773 139.576 12.5966 138.652 12.6042C137.729 12.6013 136.815 12.7809 135.963 13.1328C135.11 13.4846 134.335 14.0017 133.683 14.6543C133.031 15.3068 132.515 16.0819 132.164 16.935C131.813 17.788 131.634 18.702 131.637 19.6245C131.634 20.5468 131.813 21.4607 132.164 22.3136C132.515 23.1664 133.032 23.9413 133.684 24.5937C134.336 25.2461 135.11 25.7631 135.963 26.1149C136.816 26.4666 137.729 26.6462 138.652 26.6433C142.56 26.6433 145.666 23.559 145.666 19.6245ZM12.3971 27.4658C16.737 27.4658 20.0926 24.1321 20.0926 19.1987V0H24.7927V31.1087H20.1378V28.2212C18.0349 30.397 15.1256 31.6424 11.859 31.6424C5.14784 31.6424 0 26.7979 0 19.4655V0.00145829H4.70013V19.2001C4.70013 24.2211 8.0105 27.4658 12.3971 27.4658ZM28.2825 31.1087H32.758V28.265C33.824 29.3394 35.0927 30.1913 36.4907 30.7714C37.8886 31.3514 39.3878 31.648 40.9012 31.6439C47.6138 31.6439 52.8944 26.3546 52.8944 19.8214C52.8944 13.2444 47.6153 7.95654 40.9012 7.95654C39.3944 7.95221 37.9018 8.24871 36.511 8.82867C35.1202 9.40863 33.8591 10.2604 32.8018 11.334V0.00145829H28.281V31.1101L28.2825 31.1087ZM40.5892 27.6875C39.5544 27.6921 38.5289 27.4919 37.5719 27.0983C36.6149 26.7048 35.7452 26.1257 35.0131 25.3945C34.2809 24.6633 33.7007 23.7943 33.3059 22.8378C32.9111 21.8813 32.7095 20.8561 32.7128 19.8214C32.7095 18.7867 32.9111 17.7616 33.3057 16.8052C33.7004 15.8488 34.2805 14.98 35.0125 14.2487C35.7446 13.5175 36.614 12.9384 37.5709 12.5448C38.5278 12.1512 39.553 11.9508 40.5877 11.9552C41.619 11.9552 42.6402 12.1589 43.5926 12.5547C44.545 12.9504 45.4099 13.5304 46.1376 14.2613C46.8652 14.9922 47.4413 15.8596 47.8328 16.8138C48.2243 17.7679 48.4234 18.79 48.4188 19.8214C48.4188 24.1773 44.8868 27.6875 40.5892 27.6875ZM66.4085 8.00029C59.7411 8.00029 54.6837 13.3771 54.6837 19.7761C54.6837 26.531 59.9657 31.5987 66.811 31.5987C70.9731 31.5987 74.3738 29.7758 76.6561 26.7542L73.3895 24.3538C71.6891 26.62 69.452 27.6875 66.8125 27.6875C62.9626 27.6875 59.8753 24.9313 59.2482 21.2432H77.8198V19.7761C77.8198 13.0213 72.987 8.00029 66.4085 8.00029ZM59.3387 17.6878C60.1451 14.2214 62.964 11.9115 66.3196 11.9115C69.6766 11.9115 72.4955 14.2214 73.2568 17.6878H59.3372H59.3387ZM91.8284 12.4438V8.26716H90.2621C87.7568 8.26716 85.9222 9.42214 84.8037 11.245V8.44508H80.3281V31.1101H84.8489V18.2216C84.8489 14.7114 86.9955 12.4438 89.9486 12.4438H91.8284Z" fill="black"/>
</g>
</svg>
