<svg width="223" height="27" viewBox="0 0 223 27" fill="none" xmlns="http://www.w3.org/2000/svg">
<path d="M68.7021 0V3.58335H74.5794V11.5566H56.9422V3.58335H62.8248V0H35.2853V3.58335H40.9399L34.3021 21.9278L27.3603 3.58335H32.3413V0H18.6258V3.58335H23.8513L16.9094 21.9278L10.2716 3.58335H15.6763V0H0V3.58335H5.94245L14.7637 26.6911H18.7888L25.6058 8.74189L32.4227 26.6911H36.4478L45.2637 3.58335H53.0258V23.1077H47.1485V26.6911H62.8248V23.1077H56.9422V15.1345H74.5794V23.1077H68.7021V26.6911H84.3784V23.1077H78.5012V3.58335H84.3784V0H68.7021Z" fill="black"/>
<path d="M86.9614 0V3.58335H92.7762V23.1077H86.9614V26.6911H117.958V15.2969H114.081V23.1077H96.6473V15.1345H104.395V19.205H108.271V7.48608H104.395V11.5566H96.6473V3.58335H114.081V11.3942H117.958V0H86.9614Z" fill="black"/>
<path d="M122.263 0V3.58335H128.077V23.1077H122.263V26.6911H153.259V15.2969H149.382V23.1077H131.948V15.1345H139.697V19.205H143.573V7.48608H139.697V11.5566H131.948V3.58335H149.382V11.3942H153.259V0H122.263Z" fill="black"/>
<path d="M183.821 23.1077H166.389V3.58335H176.074V0H156.703V3.58335H162.518V23.1077H156.703V26.6911H187.699V15.2969H183.821V23.1077Z" fill="black"/>
<path d="M203.436 0V3.58335H211.029L201.478 13.8462L191.926 3.58335H199.52V0H179.95V3.58335H186.801L199.52 17.251V23.1077H191.693V26.6911H211.262V23.1077H203.436V17.251L216.155 3.58335H223V0H203.436Z" fill="black"/>
</svg>
