<svg width="173" height="40" viewBox="0 0 173 40" fill="none" xmlns="http://www.w3.org/2000/svg">
<path d="M156.808 34.7262C151.535 34.7262 150.521 30.1826 153.685 23.9351C156.768 17.6471 162.528 13.0629 167.599 13.0629C172.71 13.0629 173.846 17.5659 170.682 23.9351C167.599 30.2231 162.244 34.7262 156.808 34.7262ZM150.237 8.23528C152.306 8.23528 151.738 13.0629 149.06 17.8499H154.659C160.743 4.98987 156.119 0 150.886 0C142.408 0 132.875 8.55983 126.871 19.5537C120.583 31.0751 121.314 40 129.386 40C138.554 40 147.438 31.7647 153.725 20.2434H141.759L139.406 24.0568H147.275L147.559 20.6085C143.706 27.3428 139.244 31.7241 136.729 31.7241C134.254 31.7241 135.228 26.7343 139.081 20C142.976 13.2251 147.559 8.23528 150.237 8.23528ZM165.895 23.8945C167.923 20.4868 168.167 18.0527 166.95 18.0527C165.611 18.0527 163.461 20.568 161.473 23.8945C159.404 27.2617 159.161 29.6957 160.419 29.6957C161.757 29.6957 163.907 27.1805 165.895 23.8945ZM37.5349 20.1247V29.0429C37.5349 30.6914 37.616 32.3534 37.7781 34.0289H33.0761C32.887 33.5425 32.7654 33.002 32.7113 32.4074H32.5087C32.0493 32.8939 31.4547 33.3398 30.7252 33.7452C30.0226 34.1235 28.9551 34.3127 27.5229 34.3127C25.6583 34.3127 24.1451 33.7587 22.9831 32.6506C21.8481 31.5156 21.2806 29.9211 21.2806 27.8673C21.2806 25.7863 22.1318 24.1784 23.8343 23.0434C25.5637 21.8813 28.2661 21.3003 31.9412 21.3003H32.7113V20.1652C32.7113 19.0572 32.4411 18.287 31.9006 17.8546C31.3602 17.3951 30.5089 17.1654 29.347 17.1654C28.5363 17.1654 27.6986 17.2735 26.8338 17.4897C25.9691 17.6789 25.1719 17.9357 24.4423 18.26C23.7397 18.5572 23.1722 18.868 22.7399 19.1923V15.1791C23.4694 14.7467 24.4423 14.3278 25.6583 13.9225C26.9014 13.5171 28.3201 13.3144 29.9144 13.3144C32.4816 13.3144 34.3868 13.8279 35.6298 14.8549C36.8999 15.8818 37.5349 17.6384 37.5349 20.1247ZM32.7113 29.1645V24.7459H32.0222C29.9685 24.7459 28.4822 24.9891 27.5635 25.4756C26.6717 25.935 26.2258 26.7457 26.2258 27.9078C26.2258 28.7726 26.4825 29.4752 26.996 30.0157C27.5094 30.5292 28.266 30.786 29.2659 30.786C30.1306 30.786 30.8468 30.6238 31.4142 30.2995C31.9817 29.9752 32.4141 29.5969 32.7113 29.1645ZM46.2905 19.395V34.0289H41.4668V13.6387H46.1687L46.2905 15.3413H46.5336C47.0199 14.8548 47.7092 14.3954 48.6008 13.963C49.4924 13.5306 50.6544 13.3144 52.0868 13.3144C54.0595 13.3144 55.4782 13.7874 56.343 14.7332C57.2077 15.652 57.6399 17.1249 57.6399 19.1518V34.0289H52.8166V19.6382C52.8166 18.1249 51.9922 17.3681 50.344 17.3681C49.4792 17.3681 48.6954 17.5708 47.9928 17.9762C47.3171 18.3816 46.7499 18.8545 46.2905 19.395ZM68.5844 34.4343C66.3145 34.4343 64.4632 33.529 63.0313 31.7183C61.5989 29.9077 60.8827 27.3268 60.8827 23.9757C60.8827 20.5706 61.6125 17.9357 63.0717 16.0709C64.5577 14.1792 66.4631 13.2334 68.7871 13.2334C70.9488 13.2334 72.6511 14.1657 73.8944 16.0304V5.85557H78.7178V34.0289H74.2593L74.0158 31.394C72.7188 33.4209 70.9084 34.4343 68.5844 34.4343ZM70.0031 17.0438C68.6248 17.0438 67.5846 17.5978 66.8821 18.7059C66.2064 19.8139 65.8687 21.5705 65.8687 23.9757C65.8687 26.2728 66.1927 27.9619 66.8412 29.0429C67.4901 30.0968 68.4762 30.6238 69.8005 30.6238C71.1515 30.6238 72.1649 30.0833 72.8406 29.0023C73.5431 27.9213 73.8944 26.1917 73.8944 23.8135C73.8944 21.4624 73.57 19.7463 72.9215 18.6653C72.273 17.5843 71.3001 17.0438 70.0031 17.0438ZM98.2151 32.6506C97.5125 33.1371 96.5937 33.556 95.4585 33.9073C94.3238 34.2586 92.9859 34.4343 91.4459 34.4343C88.3653 34.4343 85.9873 33.5695 84.3118 31.8399C82.6363 30.0833 81.7988 27.4349 81.7988 23.8946C81.7988 21.8407 82.1092 20.0166 82.7308 18.4221C83.3793 16.8006 84.3386 15.5305 85.6087 14.6116C86.9061 13.6928 88.5275 13.2334 90.4729 13.2334C92.0943 13.2334 93.4994 13.5577 94.6887 14.2063C95.8775 14.8549 96.7963 15.8953 97.4448 17.3276C98.0933 18.7329 98.4177 20.6246 98.4177 23.0028V25.5566H86.7843C86.8925 27.2592 87.3247 28.5294 88.0813 29.3672C88.8379 30.2049 90.0948 30.6238 91.8512 30.6238C93.04 30.6238 94.202 30.4346 95.3372 30.0563C96.4991 29.6779 97.4584 29.232 98.2151 28.7186V32.6506ZM90.392 17.0438C88.1222 17.0438 86.9193 18.6923 86.7843 21.9894H93.5131V21.584C93.5131 20.3138 93.2831 19.2463 92.8241 18.3816C92.3915 17.4897 91.5808 17.0438 90.392 17.0438ZM113.051 34.0289L108.713 27.1376L104.619 34.0289H99.7147L106.119 23.4082L99.9582 13.6387H105.39L109.281 19.8004L112.767 13.6387H117.591L111.835 23.5298L118.482 34.0289H113.051ZM14.1465 34.0289H9.24188V25.962L0 5.85557H5.10734L12.3225 21.584C12.7819 22.5839 13.1467 23.4352 13.4169 24.1378C13.6872 24.8135 13.8763 25.5296 13.9844 26.2863C14.0925 27.043 14.1465 28.0294 14.1465 29.2455V34.0289ZM17.3488 19.4761H12.363L18.3621 5.85557H23.3478L17.3488 19.4761Z" fill="black"/>
</svg>
